<svg version="1.1" id="Layer_1" xmlns="http://www.w3.org/2000/svg" xmlns:xlink="http://www.w3.org/1999/xlink" x="0px" y="0px"
	 width="100%" viewBox="0 0 1024 1024" enable-background="new 0 0 1024 1024" xml:space="preserve">
<path fill="#F9FFFF" opacity="1.000000" stroke="none" 
	d="
M571.000000,1025.000000 
	C380.666656,1025.000000 190.833328,1025.000000 1.000000,1025.000000 
	C1.000000,683.666687 1.000000,342.333344 1.000000,1.000000 
	C342.333344,1.000000 683.666687,1.000000 1025.000000,1.000000 
	C1025.000000,342.333344 1025.000000,683.666687 1025.000000,1025.000000 
	C873.833313,1025.000000 722.666687,1025.000000 571.000000,1025.000000 
M364.003479,509.000336 
	C364.003479,509.000336 364.059631,508.976624 363.765076,508.397308 
	C362.511505,507.584778 361.257965,506.772247 360.001587,506.006866 
	C360.001587,506.006866 360.044556,505.987091 359.699066,505.410980 
	C358.013855,504.156982 356.379944,502.825409 354.630371,501.668793 
	C352.470673,500.240967 352.434113,498.738373 354.647278,496.899811 
	C354.647278,496.899811 354.996979,496.577271 355.495758,496.447418 
	C355.790466,496.067566 356.085175,495.687714 356.249725,495.244232 
	C356.249725,495.244232 356.291656,495.382874 356.947479,495.284607 
	C358.062561,494.251648 359.177643,493.218689 360.144043,492.170135 
	C360.144043,492.170135 360.194427,492.310852 360.850861,492.161011 
	C362.230988,490.764740 363.611145,489.368469 364.992950,487.993256 
	C364.992950,487.993256 364.971863,487.993378 365.599152,487.749329 
	C367.489532,485.211090 369.379883,482.672821 371.150024,480.129974 
	C371.150024,480.129974 371.203827,480.237579 371.798920,479.933014 
	C377.861542,470.500458 382.105255,460.451904 382.685883,448.334229 
	C382.688721,447.537903 382.691559,446.741547 382.948456,445.147705 
	C382.900818,443.759949 382.853180,442.372223 382.921173,440.213165 
	C382.746613,439.467163 382.572052,438.721130 382.577484,437.176758 
	C382.064575,434.093292 381.805847,430.941101 380.994171,427.938385 
	C377.708466,415.782776 372.135681,404.982391 362.000000,397.000000 
	C362.000000,397.000000 361.945129,397.054321 361.681976,396.510742 
	C361.163239,396.248260 360.644501,395.985779 360.145172,395.858734 
	C360.145172,395.858734 360.260681,395.785461 360.049347,395.153839 
	C354.057159,391.688110 348.065002,388.222382 342.090942,384.875183 
	C342.090942,384.875183 342.193817,384.813599 341.813171,384.238586 
	C329.105194,378.350677 315.717499,375.453400 301.742584,375.430298 
	C256.772888,375.355865 211.803040,375.355804 166.833252,375.346771 
	C165.557892,375.346527 164.282501,375.567810 162.817352,375.703339 
	C162.817352,467.538513 162.817352,559.058289 162.817352,651.013916 
	C164.924561,651.013916 166.734070,651.013916 168.543564,651.013916 
	C208.184250,651.014221 247.824921,651.026794 287.465607,651.002380 
	C293.953522,650.998352 300.441345,650.831055 307.789703,650.916382 
	C309.539978,650.852173 311.290222,650.787903 313.668671,650.911926 
	C314.095490,650.844299 314.522278,650.776733 315.786041,650.861389 
	C316.619171,650.736511 317.452301,650.611572 319.030853,650.721313 
	C322.956940,650.167908 326.934448,649.853210 330.800201,649.019897 
	C347.692963,645.378479 362.572021,637.968994 375.026154,624.980042 
	C375.359589,624.531982 375.693054,624.083862 376.618805,623.463013 
	C379.771515,618.644836 382.924225,613.826660 386.009125,609.005249 
	C386.009125,609.005249 386.029968,609.069824 386.636719,608.734497 
	C393.432648,595.625549 395.798004,581.656189 394.829529,566.297546 
	C394.676239,565.843079 394.522949,565.388550 394.558197,564.104980 
	C392.019836,554.812744 389.734283,545.439636 386.802795,536.273132 
	C385.808105,533.162781 383.183197,530.573730 381.060242,527.774963 
	C381.060242,527.774963 381.304565,527.788208 381.312866,527.080322 
	C377.291138,522.624207 373.269409,518.168030 369.157562,513.799927 
	C369.157562,513.799927 369.277405,513.838562 369.104340,513.199524 
	C367.747040,512.108887 366.389740,511.018188 365.006165,509.990143 
	C365.006165,509.990143 365.073822,509.984161 364.961700,509.432831 
	C364.643463,509.268372 364.325226,509.103943 364.003479,509.000336 
M455.067963,423.525604 
	C455.461884,423.664886 455.855774,423.804169 456.959869,424.221466 
	C465.283539,424.239594 473.607178,424.260376 481.930847,424.274963 
	C488.736633,424.286896 488.842010,424.283417 488.854828,431.154297 
	C488.902618,456.797699 488.875183,482.441284 488.875946,508.084778 
	C488.875977,509.995453 488.875946,511.906128 488.875946,513.687744 
	C496.459320,513.687744 503.186127,513.687744 509.878754,513.687744 
	C510.060211,512.781738 510.241028,512.301025 510.240723,511.820374 
	C510.223541,484.684998 510.294922,457.548676 510.057343,430.415131 
	C510.018280,425.951965 510.954254,424.014130 515.767151,424.197937 
	C522.058411,424.438141 528.374268,424.034546 535.591553,424.023132 
	C536.201416,423.979156 536.811340,423.935211 537.890015,424.189117 
	C539.177185,424.084045 540.464417,423.978973 541.880127,423.963959 
	C541.880127,423.963959 541.938049,423.818146 542.668396,423.417633 
	C542.460876,418.353485 542.253357,413.289307 541.141724,407.936493 
	C513.565552,407.909821 485.989380,407.869568 458.413300,407.903442 
	C457.248932,407.904877 456.085388,408.594849 454.671051,409.721436 
	C454.789825,414.099304 454.908569,418.477173 455.067963,423.525604 
M532.022766,573.392517 
	C532.155334,573.116577 532.366943,572.930603 533.471741,572.950073 
	C535.153198,573.210205 536.834717,573.470398 538.038391,573.656616 
	C538.339844,567.945862 539.231140,562.730652 538.718018,557.657471 
	C538.151001,552.051270 537.495483,545.862366 534.725891,541.208191 
	C530.476624,534.067322 522.596619,531.050781 514.599365,529.246948 
	C513.884583,529.085693 512.837158,530.399048 511.300629,531.068909 
	C510.881866,530.977905 510.463104,530.886902 509.486664,530.273499 
	C508.071411,529.858276 506.658630,529.092285 505.240509,529.082275 
	C491.261139,528.983643 477.280365,528.938904 463.301239,529.045105 
	C459.060455,529.077332 456.804718,532.596680 457.430969,536.892944 
	C458.150696,541.830322 458.881012,546.818115 458.934967,551.791199 
	C459.119110,568.765015 459.119537,585.743042 458.965942,602.717407 
	C458.880432,612.164001 458.330841,621.606018 458.032166,631.051392 
	C457.931213,634.244263 458.654388,637.655945 462.284393,637.832581 
	C475.375854,638.469604 488.495087,638.911743 501.594269,638.731873 
	C504.589569,638.690735 507.718811,638.715820 510.564484,638.441162 
	C515.073792,638.006042 519.392944,635.332092 523.704834,633.408691 
	C524.351379,633.120300 524.521484,631.763977 524.932251,630.932251 
	C524.932251,630.932251 524.915283,630.926819 525.617554,631.003418 
	C527.300598,630.716553 529.642456,631.034851 530.555420,630.040771 
	C535.115356,625.075439 541.246765,621.066101 541.895508,613.426025 
	C542.035522,611.776245 541.949707,610.106384 542.107056,608.459106 
	C543.184509,597.184753 541.387878,587.187012 530.510864,580.873779 
	C529.638489,580.367493 529.590149,578.441345 529.883118,577.042969 
	C530.558777,575.965454 531.234497,574.887939 532.022766,573.392517 
M781.851501,561.812195 
	C777.600403,565.758728 776.872681,562.084717 776.092285,558.623962 
	C773.559082,558.788513 771.275940,558.936829 768.084167,558.936035 
	C764.995361,558.936035 761.906555,558.936035 758.793579,558.936035 
	C758.793579,584.667419 758.793579,609.715820 758.793579,634.745239 
	C765.003296,634.745239 770.893005,634.745239 777.075378,634.745239 
	C777.075378,632.707336 777.074829,631.061768 777.075439,629.416199 
	C777.080627,615.934692 776.975159,602.451904 777.124146,588.971985 
	C777.259216,576.751343 788.183289,569.492126 798.694031,574.509705 
	C804.745972,577.398743 804.951782,583.380127 805.887695,589.812622 
	C805.887695,604.718994 805.887695,619.625366 805.887695,635.713684 
	C812.314270,635.031555 818.145020,634.412720 824.244202,633.071533 
	C824.257324,619.419983 824.140930,605.766174 824.372009,592.118347 
	C824.432129,588.569641 825.212891,584.922363 826.302795,581.525757 
	C828.353027,575.136475 833.962341,572.382507 841.888916,573.354919 
	C847.797302,574.079651 851.416626,577.811768 851.669678,584.614868 
	C852.157898,597.740234 852.232849,610.881287 852.448486,624.016296 
	C852.507507,627.611267 852.457458,631.207886 852.457458,634.747803 
	C859.070007,634.747803 864.953369,634.747803 871.082703,634.747803 
	C871.082703,631.703308 871.117676,629.064758 871.076965,626.427307 
	C870.835876,610.799744 871.022095,595.148315 870.177551,579.552917 
	C869.552185,568.005188 862.504272,559.646179 852.376160,557.571167 
	C841.475525,555.337830 831.227295,556.699585 822.847473,565.210022 
	C821.735657,566.339111 819.303528,566.168274 817.249756,565.958618 
	C810.100830,555.323975 793.482544,553.182800 781.851501,561.812195 
M598.518616,452.412170 
	C603.218872,456.334259 604.914734,461.531189 604.913330,467.454315 
	C604.911438,475.602661 604.919006,483.750977 604.920715,491.899323 
	C604.922180,498.670563 604.921082,505.441772 604.921082,512.446777 
	C611.349182,512.446777 617.215271,512.446777 623.261047,512.446777 
	C623.261047,496.205688 623.522705,480.273102 623.110352,464.358002 
	C622.977234,459.221100 621.072021,454.130096 619.937134,448.309021 
	C617.477722,443.393341 614.442627,439.036438 608.552307,436.518341 
	C598.038452,431.669189 587.993164,432.983429 578.224487,438.714966 
	C573.388367,441.552399 572.438354,440.912537 572.435730,435.130890 
	C572.433594,430.304260 572.415222,425.477631 572.411499,420.651001 
	C572.406982,414.896698 572.410400,409.142395 572.410400,403.373260 
	C565.861084,403.373260 559.992249,403.373260 554.134644,403.373260 
	C554.134644,439.996338 554.134644,476.175934 554.134644,512.449951 
	C560.323181,512.449951 566.078918,512.449951 572.412170,512.449951 
	C572.412170,510.231598 572.414124,508.276764 572.411865,506.321930 
	C572.398926,495.169830 572.517944,484.015381 572.322815,472.866455 
	C572.200439,465.874573 573.215393,459.316315 578.140991,453.246613 
	C584.539612,449.062042 591.230957,449.149353 598.518616,452.412170 
M570.854370,529.503723 
	C570.579956,529.219177 570.305603,528.934570 569.760132,527.925781 
	C565.039062,527.621399 560.320435,527.224976 555.594604,527.097107 
	C554.739502,527.074036 553.854614,528.153687 552.572388,528.955505 
	C552.572388,528.955505 552.112488,529.060242 551.288147,529.029602 
	C547.427551,529.190002 548.018555,532.071899 548.017029,534.495544 
	C547.998535,563.748840 547.952942,593.002380 548.067444,622.255249 
	C548.082886,626.203369 548.860107,630.160950 549.511841,634.076294 
	C549.582031,634.498230 551.176575,634.666382 552.536194,635.078491 
	C552.536194,635.078491 552.980835,635.280579 553.200073,635.990417 
	C555.212524,636.131226 557.234741,636.189819 559.235352,636.429688 
	C563.655212,636.959412 568.064148,637.580383 572.477539,638.164185 
	C572.416077,638.645020 572.354553,639.125916 572.293091,639.606750 
	C573.583923,638.904419 574.874756,638.202087 576.169250,637.497742 
	C572.683289,633.449402 569.488647,613.632019 572.632263,609.910706 
	C575.207703,606.861938 574.932678,603.925842 574.970825,600.718628 
	C575.043945,594.565796 575.067871,588.410034 574.942139,582.258911 
	C574.910156,580.694214 574.308960,579.121521 573.844116,577.590454 
	C573.302917,575.807861 572.164001,574.085266 572.093994,572.304749 
	C571.904175,567.478760 573.244263,562.949158 574.402100,558.236877 
	C576.290771,550.549805 575.069824,542.061096 574.781311,533.924072 
	C574.745117,532.903015 572.410156,531.963440 570.943481,530.543579 
	C570.943481,530.543579 570.755859,530.097168 570.854370,529.503723 
M592.987427,625.036987 
	C592.987427,625.036987 592.886536,625.052673 593.046814,625.722839 
	C603.581299,639.852722 629.168945,642.117981 643.667908,631.529480 
	C655.885254,622.607178 660.623474,609.991394 660.111206,595.447510 
	C659.794861,586.467163 657.447693,577.767883 651.659546,570.414062 
	C643.169312,559.627258 631.709106,555.990967 618.526245,556.763367 
	C604.317444,557.596008 593.617249,564.269043 587.340210,577.096558 
	C582.612854,586.757019 581.402161,597.132263 583.787842,607.682068 
	C585.269775,614.235168 587.197571,620.722717 592.987427,625.036987 
M685.590210,513.217285 
	C695.937988,509.877716 702.492798,502.889374 706.313232,492.160583 
	C702.328552,491.610046 699.007141,491.415710 695.828857,490.636993 
	C692.704224,489.871429 690.843872,490.353882 688.761230,493.213013 
	C682.983398,501.145111 669.689575,502.870453 661.807678,496.921753 
	C656.482422,492.902618 654.072449,487.368164 654.244629,480.123230 
	C656.619263,480.123230 658.417358,480.128632 660.215515,480.122375 
	C674.710571,480.072052 689.206177,479.937622 703.700256,480.031677 
	C706.879333,480.052277 708.423462,479.184845 708.136047,475.852173 
	C707.723022,471.062439 707.999573,466.119751 706.898743,461.500519 
	C703.708435,448.113983 696.150391,438.164673 682.155334,434.989746 
	C667.261047,431.610840 653.986938,434.786133 644.004578,447.149963 
	C633.704346,459.907562 633.867676,474.712677 637.576111,489.386719 
	C642.625793,509.368073 662.776672,519.212097 685.590210,513.217285 
M736.093384,625.569458 
	C745.735474,614.355164 747.724487,601.309937 745.081360,587.248596 
	C742.485107,573.436768 734.928162,563.361206 721.393982,558.982910 
	C708.278687,554.740173 695.400635,555.595215 684.112671,564.493408 
	C672.662048,573.519897 669.332275,585.871887 669.793335,599.948730 
	C670.342163,616.705627 678.719666,629.436462 693.980347,635.479309 
	C708.281006,641.142090 724.501648,637.463013 736.093384,625.569458 
M460.573944,640.513367 
	C460.573944,640.513367 460.476929,640.568726 460.573944,640.513367 
z"/>
<path fill="#08BDE4" opacity="1.000000" stroke="none" 
	d="
M354.996979,496.577271 
	C354.996979,496.577271 354.647278,496.899811 354.070251,496.960388 
	C353.174683,498.633820 352.069763,501.175018 352.679688,501.691650 
	C354.815308,503.500458 357.542206,504.611206 360.044556,505.987091 
	C360.044556,505.987091 360.001587,506.006866 360.023987,506.332642 
	C361.384155,507.431152 362.721893,508.203888 364.059631,508.976624 
	C364.059631,508.976624 364.003479,509.000336 364.087585,509.226562 
	C364.472382,509.629913 364.773102,509.807037 365.073822,509.984161 
	C365.073822,509.984161 365.006165,509.990143 365.019012,510.309814 
	C366.447052,511.699188 367.862244,512.768860 369.277405,513.838562 
	C369.277405,513.838562 369.157562,513.799927 369.136353,514.123596 
	C373.178314,518.894226 377.241455,523.341187 381.304565,527.788208 
	C381.304565,527.788208 381.060242,527.774963 381.087708,528.128540 
	C384.924133,538.390564 388.771423,548.284607 392.512024,558.218750 
	C393.327087,560.383484 393.760498,562.691833 394.369659,564.934082 
	C394.522949,565.388550 394.676239,565.843079 394.537231,566.979736 
	C393.305634,575.161560 392.747498,582.735046 391.311615,590.138306 
	C390.068176,596.549133 387.829010,602.766785 386.029968,609.069824 
	C386.029968,609.069824 386.009125,609.005249 385.715759,609.118591 
	C382.290436,614.033203 379.158447,618.834473 376.026489,623.635803 
	C375.693054,624.083862 375.359589,624.531982 374.373413,625.044617 
	C371.515686,627.011597 369.515533,629.244019 367.071320,630.760803 
	C354.809448,638.370422 342.793701,646.551758 327.798218,648.088135 
	C324.579163,648.417969 321.453918,649.663147 318.285431,650.486633 
	C317.452301,650.611572 316.619171,650.736511 315.214417,650.607422 
	C314.108673,650.476868 313.574585,650.600220 313.040497,650.723633 
	C311.290222,650.787903 309.539978,650.852173 307.035034,650.584045 
	C304.457977,650.162903 302.635620,649.997253 300.813171,649.996643 
	C257.152374,649.983276 213.491470,649.943420 169.830994,650.059387 
	C165.622910,650.070557 163.961075,648.999390 163.966583,644.459229 
	C164.072983,556.971191 164.062363,469.482910 163.951080,381.994812 
	C163.946045,378.040222 165.068985,376.913208 169.014694,376.924683 
	C214.674866,377.057526 260.337433,376.811218 305.994293,377.223938 
	C313.958282,377.295929 321.923370,379.833740 329.840332,381.463837 
	C334.011261,382.322632 338.079315,383.680878 342.193817,384.813599 
	C342.193817,384.813599 342.090942,384.875183 342.233307,385.137024 
	C343.617401,386.150391 344.846313,386.924103 346.103149,387.649414 
	C350.817383,390.370026 355.540741,393.074768 360.260681,395.785461 
	C360.260681,395.785461 360.145172,395.858734 360.209412,396.101562 
	C360.830811,396.581055 361.387970,396.817688 361.945129,397.054321 
	C361.945129,397.054321 362.000000,397.000000 362.005920,397.374390 
	C362.794922,398.799377 363.483490,399.939087 364.376221,400.886322 
	C370.581055,407.469757 375.442352,414.837006 378.008057,423.607544 
	C379.413971,428.413452 380.930725,433.186981 382.397491,437.975128 
	C382.572052,438.721130 382.746613,439.467163 382.625793,440.842468 
	C382.451721,442.962952 382.573059,444.454071 382.694397,445.945221 
	C382.691559,446.741547 382.688721,447.537903 382.171326,448.816101 
	C379.402191,456.802643 377.243866,464.338318 374.844604,471.796509 
	C373.910553,474.700104 372.433533,477.429047 371.203796,480.237579 
	C371.203827,480.237579 371.150024,480.129974 370.854431,480.192169 
	C368.696533,482.834045 366.834198,485.413696 364.971863,487.993347 
	C364.971863,487.993378 364.992950,487.993256 364.648804,488.006958 
	C362.934601,489.450714 361.564514,490.880798 360.194458,492.310852 
	C360.194427,492.310852 360.144043,492.170135 359.863220,492.208069 
	C358.485504,493.291626 357.388580,494.337250 356.291656,495.382874 
	C356.291656,495.382874 356.249725,495.244232 356.031616,495.247437 
	C355.541290,495.692841 355.269135,496.135071 354.996979,496.577271 
M204.002838,587.004578 
	C204.002838,587.004578 203.963913,587.057251 203.910950,586.340393 
	C202.916122,585.915955 201.921310,585.491516 201.006119,585.013489 
	C201.006119,585.013489 200.939713,585.083618 200.902359,584.371155 
	C200.156937,584.096375 199.411530,583.821533 198.629883,583.458069 
	C198.629883,583.458069 198.540268,583.424255 198.628342,582.701111 
	C195.546997,580.571899 192.661255,578.032471 189.323486,576.441101 
	C186.567703,575.127258 184.029358,575.990479 184.033386,579.912537 
	C184.048615,594.709839 183.964050,609.508057 184.160400,624.302734 
	C184.176880,625.543396 186.009186,626.759949 187.003815,627.997559 
	C187.003815,627.997559 187.015030,627.990112 187.595657,628.587891 
	C189.233566,628.716675 190.871277,628.954590 192.509415,628.957642 
	C214.252899,628.998352 235.996857,629.070312 257.739319,628.924438 
	C259.953094,628.909607 262.157776,627.536316 264.366669,626.793396 
	C263.002747,624.816528 261.790588,622.703491 260.199951,620.929993 
	C259.567780,620.225098 258.097198,620.272156 257.002869,619.997559 
	C257.002869,619.997559 257.022583,619.989136 256.987335,619.290833 
	C254.511429,615.639771 252.007370,612.028381 247.014496,612.069153 
	C247.014496,612.069153 246.890503,612.147217 246.901184,611.365967 
	C245.441498,610.644348 243.981796,609.922729 242.259674,609.201233 
	C242.259674,609.201233 242.055252,609.036682 241.739120,608.423279 
	C235.806442,605.307007 229.873764,602.190674 223.954132,599.066895 
	C223.954132,599.066895 223.929703,599.089783 223.904999,598.381470 
	C219.225174,595.963562 214.545349,593.545654 210.007812,591.057129 
	C210.007812,591.057129 209.884033,591.156860 209.872040,590.425293 
	C208.882446,589.979431 207.892868,589.533569 206.976547,589.017151 
	C206.976547,589.017151 206.946716,589.114380 206.740402,588.476318 
	C205.810104,587.998230 204.879807,587.520142 204.002838,587.004578 
M267.566498,536.379150 
	C267.729767,535.579407 268.035339,534.779663 268.035583,533.979858 
	C268.044037,506.041199 268.034088,478.102478 267.967529,450.163940 
	C267.965027,449.105225 267.375275,448.047852 266.842896,446.490601 
	C265.623657,446.838104 264.223907,446.913940 263.217773,447.582275 
	C259.692749,449.923798 256.303345,452.469543 252.114532,455.474213 
	C252.261246,446.191040 249.834183,437.758759 257.504883,430.934357 
	C264.645111,424.581848 271.096466,417.455048 278.270935,410.247284 
	C286.493622,418.953369 294.264496,427.159302 301.989441,435.408264 
	C302.515350,435.969879 302.981567,436.850494 302.992188,437.589752 
	C303.074432,443.303223 303.037537,449.018372 303.037537,455.919800 
	C297.800507,452.047638 293.637512,448.969543 289.321014,445.777985 
	C289.321014,460.590515 289.321014,475.012238 289.321014,489.797791 
	C311.137970,491.386475 331.117126,487.546234 347.585144,472.670013 
	C365.167450,456.787231 362.749817,425.456787 343.325500,411.824707 
	C330.764832,403.009552 316.512665,399.300720 301.489227,399.164917 
	C264.999634,398.835114 228.505463,399.010712 192.013138,399.005585 
	C190.095734,399.005310 188.178299,399.217102 186.058975,399.342072 
	C186.058975,401.654114 186.058960,403.313568 186.058975,404.973053 
	C186.059433,443.631805 186.245255,482.291779 185.985947,520.948792 
	C185.846100,541.796204 194.707428,556.760071 212.823532,566.927490 
	C229.769531,576.438171 246.353271,586.594055 263.111176,596.440918 
	C264.168274,597.062012 265.352722,597.466370 266.825714,598.127747 
	C266.825714,591.795471 267.082855,585.952393 266.762787,580.141052 
	C266.330200,572.287048 264.183258,564.942383 257.434662,560.057190 
	C250.177124,554.803650 242.806656,549.680115 235.245132,544.878418 
	C223.104706,537.169006 215.470612,526.311707 213.964600,512.168762 
	C212.865601,501.848114 213.749573,491.316345 213.749573,480.878662 
	C213.286560,480.702271 212.823547,480.525848 212.360550,480.349426 
	C208.185944,483.605591 204.011337,486.861725 198.931259,490.824127 
	C198.931259,486.559998 199.249146,483.560211 198.863632,480.653717 
	C198.112045,474.987244 200.279892,470.849762 204.305069,467.035400 
	C209.006256,462.580475 213.362915,457.744751 217.664948,452.893250 
	C219.740204,450.552948 221.347961,447.798096 223.479797,444.790131 
	C233.029694,454.760071 240.975266,463.018951 248.849686,471.345062 
	C249.474152,472.005371 249.901184,473.126495 249.917831,474.042572 
	C250.016327,479.463501 249.966400,484.887115 249.966400,491.536255 
	C244.671326,487.090454 240.231400,483.362610 235.144089,479.091248 
	C235.144089,486.230957 234.814926,492.243591 235.222031,498.205994 
	C235.817322,506.924194 237.055893,515.981323 244.166183,521.822266 
	C251.132950,527.545349 259.251587,531.866211 267.566498,536.379150 
M370.686646,581.893311 
	C370.781494,577.403320 371.106659,572.904236 370.928284,568.425110 
	C370.379028,554.632324 365.849640,542.320740 355.840942,532.609558 
	C337.105347,514.431091 313.692841,512.974060 289.258942,514.335449 
	C289.258942,542.798462 289.258942,570.873413 289.258942,599.013672 
	C305.334381,593.194946 314.621368,585.863159 314.375580,571.638916 
	C309.921906,574.960266 305.670990,578.130371 301.007172,581.608459 
	C300.668427,576.519470 300.253479,572.215576 300.162872,567.904907 
	C300.130005,566.341431 300.379272,564.312134 301.338501,563.260010 
	C309.479614,554.330750 317.814392,545.578003 326.324158,536.524414 
	C333.327087,543.939270 339.344025,551.394104 346.469025,557.570740 
	C354.751770,564.750977 351.461426,573.307373 351.918060,582.696411 
	C346.565918,578.503906 342.200867,575.084595 337.315552,571.257751 
	C336.890198,581.140442 335.900726,589.935669 330.806213,597.806580 
	C324.837524,607.028015 315.462860,611.840332 306.537170,617.249695 
	C301.263885,620.445496 295.805084,623.335144 290.429749,626.362488 
	C290.562042,626.769897 290.694366,627.177307 290.826691,627.584717 
	C301.922729,626.996094 313.101776,627.067322 324.097961,625.684631 
	C348.768921,622.582642 365.665649,608.696045 370.686646,581.893311 
z"/>
<path fill="#0DBBE0" opacity="1.000000" stroke="none" 
	d="
M685.203247,513.343201 
	C662.776672,519.212097 642.625793,509.368073 637.576111,489.386719 
	C633.867676,474.712677 633.704346,459.907562 644.004578,447.149963 
	C653.986938,434.786133 667.261047,431.610840 682.155334,434.989746 
	C696.150391,438.164673 703.708435,448.113983 706.898743,461.500519 
	C707.999573,466.119751 707.723022,471.062439 708.136047,475.852173 
	C708.423462,479.184845 706.879333,480.052277 703.700256,480.031677 
	C689.206177,479.937622 674.710571,480.072052 660.215515,480.122375 
	C658.417358,480.128632 656.619263,480.123230 654.244629,480.123230 
	C654.072449,487.368164 656.482422,492.902618 661.807678,496.921753 
	C669.689575,502.870453 682.983398,501.145111 688.761230,493.213013 
	C690.843872,490.353882 692.704224,489.871429 695.828857,490.636993 
	C699.007141,491.415710 702.328552,491.610046 706.313232,492.160583 
	C702.492798,502.889374 695.937988,509.877716 685.203247,513.343201 
M662.011108,451.091736 
	C662.011108,451.091736 662.149963,451.135315 661.375549,451.031311 
	C658.173889,451.316833 656.779175,453.091797 657.019470,456.787506 
	C656.763855,457.239929 656.508301,457.692352 655.499390,458.142273 
	C654.706970,459.495605 653.595520,460.757782 653.178101,462.218292 
	C651.501282,468.085876 652.226074,468.966278 658.223572,468.965973 
	C667.369995,468.965485 676.518188,469.049408 685.660889,468.864380 
	C687.015442,468.836945 688.344116,467.533295 689.725830,466.307190 
	C689.798950,466.152008 689.872070,465.996857 690.646667,465.835815 
	C692.995972,462.514404 690.766968,460.356903 688.896362,458.073059 
	C688.896362,458.073059 688.724976,458.209381 688.874146,457.538513 
	C688.455078,457.114777 688.036011,456.691040 688.003479,456.021179 
	C688.003479,456.021179 687.621521,456.276123 687.866333,455.519989 
	C686.859070,450.629242 683.857971,448.501007 678.979675,449.018921 
	C678.979675,449.018921 678.987976,449.093842 678.543213,448.493164 
	C674.273743,446.824738 670.102600,447.139221 666.035034,449.037964 
	C666.035034,449.037964 666.102539,449.079590 665.316528,448.987671 
	C664.252991,449.718842 663.189453,450.449982 662.011108,451.091736 
z"/>
<path fill="#0DBBE0" opacity="1.000000" stroke="none" 
	d="
M735.830139,625.808228 
	C724.501648,637.463013 708.281006,641.142090 693.980347,635.479309 
	C678.719666,629.436462 670.342163,616.705627 669.793335,599.948730 
	C669.332275,585.871887 672.662048,573.519897 684.112671,564.493408 
	C695.400635,555.595215 708.278687,554.740173 721.393982,558.982910 
	C734.928162,563.361206 742.485107,573.436768 745.081360,587.248596 
	C747.724487,601.309937 745.735474,614.355164 735.830139,625.808228 
M692.596069,580.212280 
	C686.454834,589.062622 686.968384,598.877075 689.423950,608.496094 
	C691.595398,617.002319 699.718750,622.647095 707.897888,622.780029 
	C715.420776,622.902405 722.969971,618.107117 725.630493,609.839783 
	C727.408142,604.316284 728.178528,598.054810 727.627197,592.293274 
	C726.816040,583.816040 723.519775,576.018311 714.287842,573.060364 
	C705.791016,570.337952 698.598511,572.515564 692.596069,580.212280 
z"/>
<path fill="#22A3BD" opacity="1.000000" stroke="none" 
	d="
M342.003479,384.526093 
	C338.079315,383.680878 334.011261,382.322632 329.840332,381.463837 
	C321.923370,379.833740 313.958282,377.295929 305.994293,377.223938 
	C260.337433,376.811218 214.674866,377.057526 169.014694,376.924683 
	C165.068985,376.913208 163.946045,378.040222 163.951080,381.994812 
	C164.062363,469.482910 164.072983,556.971191 163.966583,644.459229 
	C163.961075,648.999390 165.622910,650.070557 169.830994,650.059387 
	C213.491470,649.943420 257.152374,649.983276 300.813171,649.996643 
	C302.635620,649.997253 304.457977,650.162903 306.604797,650.495483 
	C300.441345,650.831055 293.953522,650.998352 287.465607,651.002380 
	C247.824921,651.026794 208.184250,651.014221 168.543564,651.013916 
	C166.734070,651.013916 164.924561,651.013916 162.817352,651.013916 
	C162.817352,559.058289 162.817352,467.538513 162.817352,375.703339 
	C164.282501,375.567810 165.557892,375.346527 166.833252,375.346771 
	C211.803040,375.355804 256.772888,375.355865 301.742584,375.430298 
	C315.717499,375.453400 329.105194,378.350677 342.003479,384.526093 
z"/>
<path fill="#2CAAC2" opacity="1.000000" stroke="none" 
	d="
M592.933044,625.123413 
	C587.197571,620.722717 585.269775,614.235168 583.787842,607.682068 
	C581.402161,597.132263 582.612854,586.757019 587.340210,577.096558 
	C593.617249,564.269043 604.317444,557.596008 618.526245,556.763367 
	C631.709106,555.990967 643.169312,559.627258 651.659546,570.414062 
	C657.447693,577.767883 659.794861,586.467163 660.111206,595.447510 
	C660.623474,609.991394 655.885254,622.607178 643.667908,631.529480 
	C629.168945,642.117981 603.581299,639.852722 593.317261,625.494934 
	C597.191040,627.486572 600.691772,629.897705 604.416382,631.890503 
	C616.530823,638.372192 628.835388,637.626160 640.362000,630.975525 
	C656.151794,621.865112 660.261658,605.526489 657.391052,588.291260 
	C656.527039,583.103516 654.052856,577.879456 651.177795,573.403381 
	C646.985046,566.875916 641.133362,562.522827 633.147644,560.129578 
	C619.933777,556.169556 608.574402,558.502075 598.088928,566.790649 
	C592.087036,571.535095 588.628357,577.737610 586.689087,585.292725 
	C583.648499,597.138611 584.135742,608.188843 590.629395,618.788269 
	C591.779602,620.665771 592.184204,623.000061 592.933044,625.123413 
z"/>
<path fill="#D3FCFE" opacity="1.000000" stroke="none" 
	d="
M524.911987,630.901672 
	C524.521484,631.763977 524.351379,633.120300 523.704834,633.408691 
	C519.392944,635.332092 515.073792,638.006042 510.564484,638.441162 
	C507.718811,638.715820 504.589569,638.690735 501.594269,638.731873 
	C488.495087,638.911743 475.375854,638.469604 462.284393,637.832581 
	C458.654388,637.655945 457.931213,634.244263 458.032166,631.051392 
	C458.330841,621.606018 458.880432,612.164001 458.965942,602.717407 
	C459.119537,585.743042 459.119110,568.765015 458.934967,551.791199 
	C458.881012,546.818115 458.150696,541.830322 457.430969,536.892944 
	C456.804718,532.596680 459.060455,529.077332 463.301239,529.045105 
	C477.280365,528.938904 491.261139,528.983643 505.240509,529.082275 
	C506.658630,529.092285 508.071411,529.858276 509.298645,530.612549 
	C493.187592,530.951599 477.264587,530.951599 461.279144,530.951599 
	C461.279144,565.963440 461.279144,600.318054 461.279144,635.003174 
	C473.824188,635.003174 485.962067,634.846680 498.093689,635.054138 
	C507.309723,635.211731 516.288391,634.331848 524.911987,630.901672 
z"/>
<path fill="#30A1B6" opacity="1.000000" stroke="none" 
	d="
M577.472717,453.554840 
	C573.215393,459.316315 572.200439,465.874573 572.322815,472.866455 
	C572.517944,484.015381 572.398926,495.169830 572.411865,506.321930 
	C572.414124,508.276764 572.412170,510.231598 572.412170,512.449951 
	C566.078918,512.449951 560.323181,512.449951 554.134644,512.449951 
	C554.134644,476.175934 554.134644,439.996338 554.134644,403.373260 
	C559.992249,403.373260 565.861084,403.373260 572.410400,403.373260 
	C572.410400,409.142395 572.406982,414.896698 572.411499,420.651001 
	C572.415222,425.477631 572.433594,430.304260 572.435730,435.130890 
	C572.438354,440.912537 573.388367,441.552399 578.224487,438.714966 
	C587.993164,432.983429 598.038452,431.669189 608.755737,436.790497 
	C608.959167,437.062653 608.933044,437.099335 608.523376,437.071167 
	C605.842224,436.580200 603.556824,436.176697 601.301758,435.644287 
	C592.184448,433.492065 584.369141,436.603088 576.957825,441.522614 
	C575.666016,442.380035 574.196960,442.970398 572.809814,443.684143 
	C572.192627,442.103851 571.067383,440.531830 571.041565,438.941895 
	C570.884521,429.278748 570.997681,419.611481 570.969055,409.945770 
	C570.963928,408.219391 570.717285,406.493774 570.598206,404.972595 
	C566.257812,404.972595 562.588989,404.719879 558.987976,405.103668 
	C557.648071,405.246460 555.592773,406.718414 555.382996,407.862762 
	C554.830811,410.874603 555.070251,414.039276 555.068420,417.143127 
	C555.051086,446.308289 555.021667,475.473511 555.094727,504.638489 
	C555.100647,507.018555 555.836548,509.396790 556.165649,511.370636 
	C559.637939,511.620148 562.384094,511.727905 565.107971,512.033997 
	C569.273438,512.501953 571.159790,511.145630 571.068420,506.553497 
	C570.823059,494.225677 570.652832,481.876984 571.128113,469.562622 
	C571.355713,463.666016 571.259216,457.159454 577.096436,453.119751 
	C577.220764,453.265717 577.472717,453.554840 577.472717,453.554840 
z"/>
<path fill="#2CAAC2" opacity="1.000000" stroke="none" 
	d="
M817.482849,566.599487 
	C819.303528,566.168274 821.735657,566.339111 822.847473,565.210022 
	C831.227295,556.699585 841.475525,555.337830 852.376160,557.571167 
	C862.504272,559.646179 869.552185,568.005188 870.177551,579.552917 
	C871.022095,595.148315 870.835876,610.799744 871.076965,626.427307 
	C871.117676,629.064758 871.082703,631.703308 871.082703,634.747803 
	C864.953369,634.747803 859.070007,634.747803 852.457458,634.747803 
	C852.457458,631.207886 852.507507,627.611267 852.448486,624.016296 
	C852.232849,610.881287 852.157898,597.740234 851.669678,584.614868 
	C851.416626,577.811768 847.797302,574.079651 841.888916,573.354919 
	C833.962341,572.382507 828.353027,575.136475 826.302795,581.525757 
	C825.212891,584.922363 824.432129,588.569641 824.372009,592.118347 
	C824.140930,605.766174 824.257324,619.419983 824.112183,632.983337 
	C823.981079,618.972046 824.017029,605.048828 823.937866,591.126160 
	C823.928101,589.407715 823.303955,587.692749 822.970764,585.592285 
	C824.409790,582.109070 825.174683,578.370117 827.408325,576.037720 
	C832.770325,570.438660 839.685181,569.385315 846.574280,572.857971 
	C852.125244,575.656067 854.032776,581.026611 854.021606,587.100281 
	C853.998413,599.744141 853.993835,612.387939 854.006531,625.031799 
	C854.016113,634.617981 854.386780,634.935425 863.864563,633.827332 
	C864.355957,633.769836 864.841553,633.509033 865.321228,633.531006 
	C868.117676,633.658569 868.837585,632.258606 869.123596,629.594299 
	C870.992920,612.180542 870.350220,594.802307 867.903137,577.547974 
	C865.849121,563.065125 852.201538,555.926086 838.466003,559.260315 
	C832.696472,560.660828 827.686096,563.067627 823.614807,567.641907 
	C821.764038,569.721436 818.707214,572.134094 817.020569,566.978516 
	C817.175476,566.853149 817.482849,566.599487 817.482849,566.599487 
z"/>
<path fill="#2CAAC2" opacity="1.000000" stroke="none" 
	d="
M534.679504,423.907928 
	C528.374268,424.034546 522.058411,424.438141 515.767151,424.197937 
	C510.954254,424.014130 510.018280,425.951965 510.057343,430.415131 
	C510.294922,457.548676 510.223541,484.684998 510.240723,511.820374 
	C510.241028,512.301025 510.060211,512.781738 509.878754,513.687744 
	C503.186127,513.687744 496.459320,513.687744 488.875946,513.687744 
	C488.875946,511.906128 488.875977,509.995453 488.875946,508.084778 
	C488.875183,482.441284 488.902618,456.797699 488.854828,431.154297 
	C488.842010,424.283417 488.736633,424.286896 481.930847,424.274963 
	C473.607178,424.260376 465.283539,424.239594 456.916199,424.091339 
	C457.585510,423.629211 458.298492,423.297241 459.253143,422.959290 
	C459.494812,422.953308 459.977814,422.974762 460.276459,423.270203 
	C468.046539,423.349945 475.518005,423.134247 483.144653,422.709778 
	C483.869965,422.646423 484.440063,422.791840 485.182343,423.196533 
	C486.236298,423.303436 487.118103,423.151123 488.387146,423.052551 
	C489.504547,424.593414 490.826630,426.072357 490.847107,427.569153 
	C490.896606,431.184753 490.080444,434.807739 490.067047,438.429413 
	C489.983215,461.046112 490.024078,483.663239 490.023651,506.280243 
	C490.023621,508.044281 490.023651,509.808289 490.023651,512.046814 
	C494.856689,512.046814 498.955933,511.815613 503.016449,512.112976 
	C506.942200,512.400391 508.132233,511.062866 508.101074,507.076233 
	C507.917877,483.629120 508.002808,460.179932 507.998352,436.731445 
	C507.997681,433.239197 507.886963,429.741943 508.037872,426.256134 
	C508.177795,423.024231 509.435516,421.083374 512.944214,423.231567 
	C520.111572,423.644684 527.395508,423.776306 534.679504,423.907928 
z"/>
<path fill="#E1FEFE" opacity="1.000000" stroke="none" 
	d="
M552.064026,634.952271 
	C551.176575,634.666382 549.582031,634.498230 549.511841,634.076294 
	C548.860107,630.160950 548.082886,626.203369 548.067444,622.255249 
	C547.952942,593.002380 547.998535,563.748840 548.017029,534.495544 
	C548.018555,532.071899 547.427551,529.190002 551.669922,529.507690 
	C552.055847,564.974548 552.059937,599.963440 552.064026,634.952271 
z"/>
<path fill="#E1FEFE" opacity="1.000000" stroke="none" 
	d="
M571.140259,530.986145 
	C572.410156,531.963440 574.745117,532.903015 574.781311,533.924072 
	C575.069824,542.061096 576.290771,550.549805 574.402100,558.236877 
	C573.244263,562.949158 571.904175,567.478760 572.093994,572.304749 
	C572.164001,574.085266 573.302917,575.807861 573.844116,577.590454 
	C574.308960,579.121521 574.910156,580.694214 574.942139,582.258911 
	C575.067871,588.410034 575.043945,594.565796 574.970825,600.718628 
	C574.932678,603.925842 575.207703,606.861938 572.632263,609.910706 
	C569.488647,613.632019 572.683289,633.449402 576.169250,637.497742 
	C574.874756,638.202087 573.583923,638.904419 572.293091,639.606750 
	C572.354553,639.125916 572.416077,638.645020 572.477539,638.164185 
	C568.064148,637.580383 563.655212,636.959412 559.235352,636.429688 
	C557.234741,636.189819 555.212524,636.131226 553.555298,635.566162 
	C558.469482,635.132629 563.029724,635.058960 567.587097,635.140930 
	C569.923035,635.182922 571.532349,634.794861 570.796143,631.551514 
	C570.814270,630.459229 570.766663,629.727600 570.820679,628.604675 
	C570.858337,627.144409 570.794373,626.075378 570.792480,624.541382 
	C570.862793,607.976318 570.840332,591.876099 570.888489,575.776062 
	C570.933167,560.845947 571.053345,545.916138 571.140259,530.986145 
z"/>
<path fill="#22A3BD" opacity="1.000000" stroke="none" 
	d="
M806.041138,588.862671 
	C804.951782,583.380127 804.745972,577.398743 798.694031,574.509705 
	C788.183289,569.492126 777.259216,576.751343 777.124146,588.971985 
	C776.975159,602.451904 777.080627,615.934692 777.075439,629.416199 
	C777.074829,631.061768 777.075378,632.707336 777.075378,634.745239 
	C770.893005,634.745239 765.003296,634.745239 758.793579,634.745239 
	C758.793579,609.715820 758.793579,584.667419 758.793579,558.936035 
	C761.906555,558.936035 764.995361,558.936035 768.539795,559.252686 
	C768.995422,559.569397 768.992676,560.053589 768.557373,560.048706 
	C760.020630,560.065063 760.018372,560.065063 760.019226,567.972168 
	C760.021301,587.277649 760.014282,606.583130 760.034363,625.888611 
	C760.043091,634.264954 760.858826,634.952698 769.234497,633.907349 
	C775.628296,633.109375 775.962646,632.746826 775.967590,626.093445 
	C775.977478,612.779358 775.924072,599.465149 775.971069,586.151245 
	C775.994324,579.574585 780.742065,573.509216 785.538940,572.505188 
	C791.692749,571.217224 798.668945,569.528809 803.222107,575.963928 
	C805.221191,578.789307 805.802002,582.618103 806.763428,586.182251 
	C806.347107,587.203003 806.194092,588.032837 806.041138,588.862671 
z"/>
<path fill="#22A3BD" opacity="1.000000" stroke="none" 
	d="
M524.922119,630.916992 
	C516.288391,634.331848 507.309723,635.211731 498.093689,635.054138 
	C485.962067,634.846680 473.824188,635.003174 461.279144,635.003174 
	C461.279144,600.318054 461.279144,565.963440 461.279144,530.951599 
	C477.264587,530.951599 493.187592,530.951599 509.577484,530.873779 
	C510.463104,530.886902 510.881866,530.977905 511.895874,531.311096 
	C518.021851,534.020996 523.552612,536.488708 528.703369,538.980225 
	C524.208069,537.334534 520.220276,535.156799 515.954651,534.085938 
	C499.735382,530.013855 483.178162,532.718018 466.775940,532.183167 
	C463.899445,532.089355 461.957062,533.742798 461.967194,537.252258 
	C462.055054,567.722717 462.046875,598.193604 462.017090,628.664307 
	C462.013336,632.503235 463.823639,634.022888 467.543976,633.988342 
	C476.368134,633.906311 485.203369,634.217834 494.015442,633.880981 
	C501.436646,633.597351 508.877716,632.933289 516.219971,631.835510 
	C520.348450,631.218262 524.294617,629.380981 528.138489,628.362000 
	C526.941162,629.395996 525.928223,630.161377 524.915283,630.926819 
	C524.915283,630.926819 524.932251,630.932251 524.922119,630.916992 
z"/>
<path fill="#3BB4CD" opacity="1.000000" stroke="none" 
	d="
M570.730286,631.912170 
	C571.532349,634.794861 569.923035,635.182922 567.587097,635.140930 
	C563.029724,635.058960 558.469482,635.132629 553.445679,635.211182 
	C552.980835,635.280579 552.536194,635.078491 552.300110,635.015381 
	C552.059937,599.963440 552.055847,564.974548 552.082153,529.522949 
	C552.112488,529.060242 552.572388,528.955505 553.245117,528.875122 
	C559.289001,528.746521 564.660095,528.698303 570.031189,528.650024 
	C570.305603,528.934570 570.579956,529.219177 570.508057,529.788818 
	C569.765686,530.071777 569.369629,530.069580 568.509949,530.031616 
	C565.220703,529.987793 562.367310,530.227356 559.575867,529.914124 
	C555.299988,529.434387 553.779297,530.776306 553.880066,535.338989 
	C554.180847,548.962463 553.977051,562.597107 553.979431,576.227356 
	C553.982422,593.348267 553.924927,610.469971 554.105896,627.589050 
	C554.124817,629.374023 555.482361,632.610840 556.383545,632.670166 
	C560.562744,632.945068 564.799988,632.336487 569.302612,632.027100 
	C569.969238,631.977234 570.349792,631.944702 570.730286,631.912170 
z"/>
<path fill="#30A1B6" opacity="1.000000" stroke="none" 
	d="
M619.977417,449.018097 
	C621.072021,454.130096 622.977234,459.221100 623.110352,464.358002 
	C623.522705,480.273102 623.261047,496.205688 623.261047,512.446777 
	C617.215271,512.446777 611.349182,512.446777 604.921082,512.446777 
	C604.921082,505.441772 604.922180,498.670563 604.920715,491.899323 
	C604.919006,483.750977 604.911438,475.602661 604.913330,467.454315 
	C604.914734,461.531189 603.218872,456.334259 598.320068,452.136078 
	C598.121460,451.859985 598.139282,451.840332 598.503662,451.886597 
	C604.268555,454.304840 605.918457,458.985168 605.969482,464.287659 
	C606.103760,478.253876 606.167236,492.225250 605.911743,506.188232 
	C605.826050,510.874115 607.480652,512.562683 612.005920,512.053101 
	C615.067993,511.708344 618.166382,511.685455 622.016174,511.477020 
	C622.016174,509.601593 622.065613,507.674652 622.008545,505.750854 
	C621.449036,486.879272 623.607300,467.902557 619.867188,449.121063 
	C619.904175,449.087006 619.977417,449.018097 619.977417,449.018097 
z"/>
<path fill="#0DBBE0" opacity="1.000000" stroke="none" 
	d="
M568.973511,530.067322 
	C569.369629,530.069580 569.765686,530.071777 570.458862,530.085571 
	C570.755859,530.097168 570.943481,530.543579 571.041870,530.764893 
	C571.053345,545.916138 570.933167,560.845947 570.888489,575.776062 
	C570.840332,591.876099 570.862793,607.976318 570.581055,624.775146 
	C570.444763,626.647888 570.581909,627.821899 570.719055,628.995911 
	C570.766663,629.727600 570.814270,630.459229 570.796143,631.551514 
	C570.349792,631.944702 569.969238,631.977234 569.295105,631.553589 
	C568.992126,597.420776 568.982788,563.744019 568.973511,530.067322 
z"/>
<path fill="#D3FCFE" opacity="1.000000" stroke="none" 
	d="
M525.266418,630.965088 
	C525.928223,630.161377 526.941162,629.395996 528.454468,628.294739 
	C546.643066,614.227600 544.057068,591.507080 523.145203,579.876038 
	C525.150757,578.788818 526.979004,577.797668 528.895996,576.897949 
	C528.984619,576.989319 529.158875,577.175049 529.158875,577.175049 
	C529.590149,578.441345 529.638489,580.367493 530.510864,580.873779 
	C541.387878,587.187012 543.184509,597.184753 542.107056,608.459106 
	C541.949707,610.106384 542.035522,611.776245 541.895508,613.426025 
	C541.246765,621.066101 535.115356,625.075439 530.555420,630.040771 
	C529.642456,631.034851 527.300598,630.716553 525.266418,630.965088 
z"/>
<path fill="#D3FCFE" opacity="1.000000" stroke="none" 
	d="
M529.083374,538.956421 
	C523.552612,536.488708 518.021851,534.020996 512.217651,531.290405 
	C512.837158,530.399048 513.884583,529.085693 514.599365,529.246948 
	C522.596619,531.050781 530.476624,534.067322 534.725891,541.208191 
	C537.495483,545.862366 538.151001,552.051270 538.718018,557.657471 
	C539.231140,562.730652 538.339844,567.945862 538.038391,573.656616 
	C536.834717,573.470398 535.153198,573.210205 533.176392,572.542236 
	C533.505859,570.976868 534.309753,569.880005 534.726929,568.651794 
	C537.605286,560.176636 539.087097,551.762817 533.061462,543.892883 
	C533.039490,543.921448 533.088562,543.973450 533.091980,543.634949 
	C532.070190,542.184509 531.045044,541.072571 530.008301,539.980225 
	C529.996704,539.999756 530.041382,539.991394 529.960815,539.739014 
	C529.592224,539.301086 529.304260,539.115540 529.024170,538.958679 
	C529.032166,538.987366 529.083374,538.956421 529.083374,538.956421 
z"/>
<path fill="#30A1B6" opacity="1.000000" stroke="none" 
	d="
M805.964417,589.337646 
	C806.194092,588.032837 806.347107,587.203003 806.774902,586.651733 
	C807.053650,599.573730 807.051331,612.217163 807.063538,624.860596 
	C807.072388,634.066895 807.080933,634.066772 816.482056,633.962585 
	C816.814758,633.958923 817.148621,633.940918 817.480042,633.960938 
	C821.435730,634.200195 823.078003,632.608276 823.018188,628.397034 
	C822.817566,614.259338 822.955872,600.116821 822.964478,585.976196 
	C823.303955,587.692749 823.928101,589.407715 823.937866,591.126160 
	C824.017029,605.048828 823.981079,618.972046 823.977966,633.344482 
	C818.145020,634.412720 812.314270,635.031555 805.887695,635.713684 
	C805.887695,619.625366 805.887695,604.718994 805.964417,589.337646 
z"/>
<path fill="#22A3BD" opacity="1.000000" stroke="none" 
	d="
M318.658142,650.604004 
	C321.453918,649.663147 324.579163,648.417969 327.798218,648.088135 
	C342.793701,646.551758 354.809448,638.370422 367.071320,630.760803 
	C369.515533,629.244019 371.515686,627.011597 374.095093,625.129028 
	C362.572021,637.968994 347.692963,645.378479 330.800201,649.019897 
	C326.934448,649.853210 322.956940,650.167908 318.658142,650.604004 
z"/>
<path fill="#30A1B6" opacity="1.000000" stroke="none" 
	d="
M454.921448,408.964050 
	C456.085388,408.594849 457.248932,407.904877 458.413300,407.903442 
	C485.989380,407.869568 513.565552,407.909821 541.553406,408.332764 
	C541.255066,408.865875 540.544983,409.002716 539.401733,409.123596 
	C536.017395,409.104248 533.066223,409.100800 529.813599,409.073059 
	C529.310608,409.057190 529.109192,409.065613 528.444885,409.073730 
	C507.013184,409.071320 486.044281,409.069244 464.677368,409.043701 
	C463.481812,409.046173 462.684326,409.072205 461.514343,409.103088 
	C460.148682,409.109985 459.155457,409.112000 457.800903,409.121063 
	C456.964325,410.084473 456.489166,411.040771 456.008881,411.999268 
	C456.003754,412.001434 456.002838,412.016052 455.739685,411.802032 
	C455.291534,410.713348 455.106506,409.838684 454.921448,408.964050 
z"/>
<path fill="#2CAAC2" opacity="1.000000" stroke="none" 
	d="
M782.558105,561.488770 
	C793.482544,553.182800 810.100830,555.323975 817.366333,566.279053 
	C817.482849,566.599487 817.175476,566.853149 816.735657,566.802124 
	C815.457703,566.225220 814.405640,565.872864 813.815918,565.145569 
	C809.687256,560.053955 804.123474,558.381104 797.979187,559.059875 
	C792.959900,559.614380 788.035950,561.032288 782.941711,561.922852 
	C782.813660,561.778320 782.558105,561.488770 782.558105,561.488770 
z"/>
<path fill="#22A3BD" opacity="1.000000" stroke="none" 
	d="
M382.487488,437.575928 
	C380.930725,433.186981 379.413971,428.413452 378.008057,423.607544 
	C375.442352,414.837006 370.581055,407.469757 364.376221,400.886322 
	C363.483490,399.939087 362.794922,398.799377 361.980011,397.403320 
	C372.135681,404.982391 377.708466,415.782776 380.994171,427.938385 
	C381.805847,430.941101 382.064575,434.093292 382.487488,437.575928 
z"/>
<path fill="#22A3BD" opacity="1.000000" stroke="none" 
	d="
M394.463928,564.519531 
	C393.760498,562.691833 393.327087,560.383484 392.512024,558.218750 
	C388.771423,548.284607 384.924133,538.390564 381.209198,528.114258 
	C383.183197,530.573730 385.808105,533.162781 386.802795,536.273132 
	C389.734283,545.439636 392.019836,554.812744 394.463928,564.519531 
z"/>
<path fill="#22A3BD" opacity="1.000000" stroke="none" 
	d="
M386.333374,608.902161 
	C387.829010,602.766785 390.068176,596.549133 391.311615,590.138306 
	C392.747498,582.735046 393.305634,575.161560 394.490845,567.341736 
	C395.798004,581.656189 393.432648,595.625549 386.333374,608.902161 
z"/>
<path fill="#22A3BD" opacity="1.000000" stroke="none" 
	d="
M371.501343,480.085297 
	C372.433533,477.429047 373.910553,474.700104 374.844604,471.796509 
	C377.243866,464.338318 379.402191,456.802643 381.962158,449.159546 
	C382.105255,460.451904 377.861542,470.500458 371.501343,480.085297 
z"/>
<path fill="#22A3BD" opacity="1.000000" stroke="none" 
	d="
M533.083435,543.864319 
	C539.087097,551.762817 537.605286,560.176636 534.726929,568.651794 
	C534.309753,569.880005 533.505859,570.976868 532.769287,572.484497 
	C532.366943,572.930603 532.155334,573.116577 531.682251,573.726318 
	C530.549927,574.687866 529.758240,575.315674 528.971619,575.576782 
	C530.179993,573.083374 531.384888,570.957581 532.586243,568.829834 
	C537.234375,560.597534 535.784058,552.243225 533.083435,543.864319 
z"/>
<path fill="#2CAAC2" opacity="1.000000" stroke="none" 
	d="
M768.992676,560.053589 
	C768.992676,560.053589 768.995422,559.569397 768.994141,559.327271 
	C771.275940,558.936829 773.559082,558.788513 776.092285,558.623962 
	C776.872681,562.084717 777.600403,565.758728 782.204834,561.650513 
	C782.558105,561.488770 782.813660,561.778320 782.907471,562.276306 
	C779.993652,567.896484 778.176331,568.626038 775.298584,565.750244 
	C775.363403,564.352844 775.182556,563.170288 774.799927,561.737427 
	C772.729675,561.009277 770.861206,560.531433 768.992676,560.053589 
z"/>
<path fill="#22A3BD" opacity="1.000000" stroke="none" 
	d="
M360.155029,395.469666 
	C355.540741,393.074768 350.817383,390.370026 346.103149,387.649414 
	C344.846313,386.924103 343.617401,386.150391 342.224243,385.077759 
	C348.065002,388.222382 354.057159,391.688110 360.155029,395.469666 
z"/>
<path fill="#2CAAC2" opacity="1.000000" stroke="none" 
	d="
M539.834961,409.139526 
	C540.544983,409.002716 541.255066,408.865875 542.005493,408.477112 
	C542.253357,413.289307 542.460876,418.353485 542.247803,423.496948 
	C541.714355,423.609741 541.601624,423.643250 541.488831,423.676788 
	C541.576416,423.742493 541.664001,423.808197 541.751587,423.873901 
	C540.464417,423.978973 539.177185,424.084045 537.892822,424.068481 
	C538.247559,423.620636 538.599609,423.293427 539.205566,422.672455 
	C539.584656,417.965607 539.709839,413.552582 539.834961,409.139526 
z"/>
<path fill="#30A1B6" opacity="1.000000" stroke="none" 
	d="
M598.112427,451.869232 
	C591.230957,449.149353 584.539612,449.062042 577.806885,453.400726 
	C577.472717,453.554840 577.220764,453.265717 577.259277,452.801147 
	C579.676941,451.245819 582.080933,449.204620 584.429810,449.266113 
	C589.039917,449.386810 594.466309,446.496368 598.139282,451.840332 
	C598.139282,451.840332 598.121460,451.859985 598.112427,451.869232 
z"/>
<path fill="#E1FEFE" opacity="1.000000" stroke="none" 
	d="
M569.895630,528.287903 
	C564.660095,528.698303 559.289001,528.746521 553.450684,528.759521 
	C553.854614,528.153687 554.739502,527.074036 555.594604,527.097107 
	C560.320435,527.224976 565.039062,527.621399 569.895630,528.287903 
z"/>
<path fill="#22A3BD" opacity="1.000000" stroke="none" 
	d="
M381.308716,527.434265 
	C377.241455,523.341187 373.178314,518.894226 369.181396,514.079590 
	C373.269409,518.168030 377.291138,522.624207 381.308716,527.434265 
z"/>
<path fill="#22A3BD" opacity="1.000000" stroke="none" 
	d="
M376.322632,623.549438 
	C379.158447,618.834473 382.290436,614.033203 385.749664,609.120239 
	C382.924225,613.826660 379.771515,618.644836 376.322632,623.549438 
z"/>
<path fill="#30A1B6" opacity="1.000000" stroke="none" 
	d="
M608.973511,437.045288 
	C614.442627,439.036438 617.477722,443.393341 619.957275,448.663574 
	C619.977417,449.018097 619.904175,449.087006 619.547485,449.023560 
	C615.771545,445.006531 612.352295,441.052948 608.933044,437.099335 
	C608.933044,437.099335 608.959167,437.062653 608.973511,437.045288 
z"/>
<path fill="#30A1B6" opacity="1.000000" stroke="none" 
	d="
M538.951660,422.966278 
	C538.599609,423.293427 538.247559,423.620636 537.658386,423.919525 
	C536.811340,423.935211 536.201416,423.979156 535.135498,423.965515 
	C527.395508,423.776306 520.111572,423.644684 513.406494,423.230103 
	C522.307556,422.953491 530.629578,422.959900 538.951660,422.966278 
z"/>
<path fill="#2CAAC2" opacity="1.000000" stroke="none" 
	d="
M454.796265,409.342712 
	C455.106506,409.838684 455.291534,410.713348 455.757690,412.211639 
	C456.347076,415.894043 456.655334,418.952789 456.703125,421.781830 
	C456.152802,420.337341 455.862976,419.122589 455.573151,417.907867 
	C455.391205,417.926758 455.209290,417.945648 455.027344,417.964539 
	C455.027344,419.594696 455.027344,421.224884 455.027344,422.855042 
	C454.908569,418.477173 454.789825,414.099304 454.796265,409.342712 
z"/>
<path fill="#22A3BD" opacity="1.000000" stroke="none" 
	d="
M359.871826,505.699036 
	C357.542206,504.611206 354.815308,503.500458 352.679688,501.691650 
	C352.069763,501.175018 353.174683,498.633820 353.837769,497.010498 
	C352.434113,498.738373 352.470673,500.240967 354.630371,501.668793 
	C356.379944,502.825409 358.013855,504.156982 359.871826,505.699036 
z"/>
<path fill="#22A3BD" opacity="1.000000" stroke="none" 
	d="
M365.285492,487.871338 
	C366.834198,485.413696 368.696533,482.834045 370.914551,480.194458 
	C369.379883,482.672821 367.489532,485.211090 365.285492,487.871338 
z"/>
<path fill="#30A1B6" opacity="1.000000" stroke="none" 
	d="
M455.047668,423.190308 
	C455.027344,421.224884 455.027344,419.594696 455.027344,417.964539 
	C455.209290,417.945648 455.391205,417.926758 455.573151,417.907867 
	C455.862976,419.122589 456.152802,420.337341 456.892395,422.009613 
	C457.898590,422.633209 458.455048,422.799255 459.011475,422.965271 
	C458.298492,423.297241 457.585510,423.629211 456.561096,423.952332 
	C455.855774,423.804169 455.461884,423.664886 455.047668,423.190308 
z"/>
<path fill="#22A3BD" opacity="1.000000" stroke="none" 
	d="
M360.522644,492.235962 
	C361.564514,490.880798 362.934601,489.450714 364.648010,487.996399 
	C363.611145,489.368469 362.230988,490.764740 360.522644,492.235962 
z"/>
<path fill="#22A3BD" opacity="1.000000" stroke="none" 
	d="
M369.190857,513.519043 
	C367.862244,512.768860 366.447052,511.699188 365.032166,510.278503 
	C366.389740,511.018188 367.747040,512.108887 369.190857,513.519043 
z"/>
<path fill="#22A3BD" opacity="1.000000" stroke="none" 
	d="
M356.619568,495.333740 
	C357.388580,494.337250 358.485504,493.291626 359.937561,492.215881 
	C359.177643,493.218689 358.062561,494.251648 356.619568,495.333740 
z"/>
<path fill="#22A3BD" opacity="1.000000" stroke="none" 
	d="
M363.912354,508.686951 
	C362.721893,508.203888 361.384155,507.431152 360.025391,506.309082 
	C361.257965,506.772247 362.511505,507.584778 363.912354,508.686951 
z"/>
<path fill="#D3FCFE" opacity="1.000000" stroke="none" 
	d="
M528.966492,575.943481 
	C529.758240,575.315674 530.549927,574.687866 531.625916,573.935242 
	C531.234497,574.887939 530.558777,575.965454 529.520996,577.109009 
	C529.158875,577.175049 528.984619,576.989319 528.940430,576.683105 
	C528.896240,576.376831 528.966492,575.943481 528.966492,575.943481 
z"/>
<path fill="#22A3BD" opacity="1.000000" stroke="none" 
	d="
M382.821411,445.546448 
	C382.573059,444.454071 382.451721,442.962952 382.567963,441.228149 
	C382.853180,442.372223 382.900818,443.759949 382.821411,445.546448 
z"/>
<path fill="#22A3BD" opacity="1.000000" stroke="none" 
	d="
M355.246368,496.512329 
	C355.269135,496.135071 355.541290,495.692841 356.096680,495.279236 
	C356.085175,495.687714 355.790466,496.067566 355.246368,496.512329 
z"/>
<path fill="#22A3BD" opacity="1.000000" stroke="none" 
	d="
M361.813538,396.782532 
	C361.387970,396.817688 360.830811,396.581055 360.199707,396.033875 
	C360.644501,395.985779 361.163239,396.248260 361.813538,396.782532 
z"/>
<path fill="#22A3BD" opacity="1.000000" stroke="none" 
	d="
M313.354584,650.817749 
	C313.574585,650.600220 314.108673,650.476868 314.795959,650.531311 
	C314.522278,650.776733 314.095490,650.844299 313.354584,650.817749 
z"/>
<path fill="#22A3BD" opacity="1.000000" stroke="none" 
	d="
M365.017761,509.708496 
	C364.773102,509.807037 364.472382,509.629913 364.089325,509.196136 
	C364.325226,509.103943 364.643463,509.268372 365.017761,509.708496 
z"/>
<path fill="#D3FCFE" opacity="1.000000" stroke="none" 
	d="
M460.525452,640.541016 
	C460.476929,640.568726 460.573944,640.513367 460.525452,640.541016 
z"/>
<path fill="#F2FEFE" opacity="1.000000" stroke="none" 
	d="
M266.864685,536.802490 
	C259.251587,531.866211 251.132950,527.545349 244.166183,521.822266 
	C237.055893,515.981323 235.817322,506.924194 235.222031,498.205994 
	C234.814926,492.243591 235.144089,486.230957 235.144089,479.091248 
	C240.231400,483.362610 244.671326,487.090454 249.966400,491.536255 
	C249.966400,484.887115 250.016327,479.463501 249.917831,474.042572 
	C249.901184,473.126495 249.474152,472.005371 248.849686,471.345062 
	C240.975266,463.018951 233.029694,454.760071 223.479797,444.790131 
	C221.347961,447.798096 219.740204,450.552948 217.664948,452.893250 
	C213.362915,457.744751 209.006256,462.580475 204.305069,467.035400 
	C200.279892,470.849762 198.112045,474.987244 198.863632,480.653717 
	C199.249146,483.560211 198.931259,486.559998 198.931259,490.824127 
	C204.011337,486.861725 208.185944,483.605591 212.360550,480.349426 
	C212.823547,480.525848 213.286560,480.702271 213.749573,480.878662 
	C213.749573,491.316345 212.865601,501.848114 213.964600,512.168762 
	C215.470612,526.311707 223.104706,537.169006 235.245132,544.878418 
	C242.806656,549.680115 250.177124,554.803650 257.434662,560.057190 
	C264.183258,564.942383 266.330200,572.287048 266.762787,580.141052 
	C267.082855,585.952393 266.825714,591.795471 266.825714,598.127747 
	C265.352722,597.466370 264.168274,597.062012 263.111176,596.440918 
	C246.353271,586.594055 229.769531,576.438171 212.823532,566.927490 
	C194.707428,556.760071 185.846100,541.796204 185.985947,520.948792 
	C186.245255,482.291779 186.059433,443.631805 186.058975,404.973053 
	C186.058960,403.313568 186.058975,401.654114 186.058975,399.342072 
	C188.178299,399.217102 190.095734,399.005310 192.013138,399.005585 
	C228.505463,399.010712 264.999634,398.835114 301.489227,399.164917 
	C316.512665,399.300720 330.764832,403.009552 343.325500,411.824707 
	C362.749817,425.456787 365.167450,456.787231 347.585144,472.670013 
	C331.117126,487.546234 311.137970,491.386475 289.321014,489.797791 
	C289.321014,475.012238 289.321014,460.590515 289.321014,445.777985 
	C293.637512,448.969543 297.800507,452.047638 303.037537,455.919800 
	C303.037537,449.018372 303.074432,443.303223 302.992188,437.589752 
	C302.981567,436.850494 302.515350,435.969879 301.989441,435.408264 
	C294.264496,427.159302 286.493622,418.953369 278.270935,410.247284 
	C271.096466,417.455048 264.645111,424.581848 257.504883,430.934357 
	C249.834183,437.758759 252.261246,446.191040 252.114532,455.474213 
	C256.303345,452.469543 259.692749,449.923798 263.217773,447.582275 
	C264.223907,446.913940 265.623657,446.838104 266.847778,447.201508 
	C266.856689,477.542450 266.860687,507.172455 266.864685,536.802490 
z"/>
<path fill="#F0FDFD" opacity="1.000000" stroke="none" 
	d="
M370.538239,582.309204 
	C365.665649,608.696045 348.768921,622.582642 324.097961,625.684631 
	C313.101776,627.067322 301.922729,626.996094 290.826691,627.584717 
	C290.694366,627.177307 290.562042,626.769897 290.429749,626.362488 
	C295.805084,623.335144 301.263885,620.445496 306.537170,617.249695 
	C315.462860,611.840332 324.837524,607.028015 330.806213,597.806580 
	C335.900726,589.935669 336.890198,581.140442 337.315552,571.257751 
	C342.200867,575.084595 346.565918,578.503906 351.918060,582.696411 
	C351.461426,573.307373 354.751770,564.750977 346.469025,557.570740 
	C339.344025,551.394104 333.327087,543.939270 326.324158,536.524414 
	C317.814392,545.578003 309.479614,554.330750 301.338501,563.260010 
	C300.379272,564.312134 300.130005,566.341431 300.162872,567.904907 
	C300.253479,572.215576 300.668427,576.519470 301.007172,581.608459 
	C305.670990,578.130371 309.921906,574.960266 314.375580,571.638916 
	C314.621368,585.863159 305.334381,593.194946 289.258942,599.013672 
	C289.258942,570.873413 289.258942,542.798462 289.258942,514.335449 
	C313.692841,512.974060 337.105347,514.431091 355.840942,532.609558 
	C365.849640,542.320740 370.379028,554.632324 370.928284,568.425110 
	C371.106659,572.904236 370.781494,577.403320 370.538239,582.309204 
z"/>
<path fill="#F0FDFD" opacity="1.000000" stroke="none" 
	d="
M242.055237,609.036743 
	C242.055252,609.036682 242.259674,609.201233 242.588409,609.482056 
	C244.241608,610.557678 245.566055,611.352417 246.890503,612.147217 
	C246.890503,612.147217 247.014496,612.069153 247.097931,612.393921 
	C250.461761,615.142151 253.742172,617.565674 257.022583,619.989136 
	C257.022583,619.989136 257.002869,619.997559 257.130188,620.304199 
	C258.876556,622.366760 260.495575,624.122681 262.885468,626.714722 
	C260.147705,626.928345 258.582184,627.155334 257.016449,627.156738 
	C235.625763,627.176025 214.235001,627.142639 192.844467,627.195984 
	C190.900665,627.200806 188.958145,627.713318 187.015030,627.990112 
	C187.015030,627.990112 187.003815,627.997559 186.810822,627.618530 
	C186.512711,610.949463 186.401825,594.659363 186.339584,578.369202 
	C186.338196,578.008240 186.891006,577.645203 187.377319,577.046875 
	C191.131561,579.191650 194.835922,581.307922 198.540283,583.424255 
	C198.540268,583.424255 198.629883,583.458069 198.766968,583.759399 
	C199.582596,584.401672 200.261154,584.742676 200.939713,585.083618 
	C200.939713,585.083618 201.006119,585.013489 201.069946,585.344543 
	C202.077164,586.136169 203.020523,586.596741 203.963898,587.057251 
	C203.963913,587.057251 204.002838,587.004578 204.111069,587.311035 
	C205.128433,588.116394 206.037582,588.615417 206.946716,589.114380 
	C206.946716,589.114380 206.976547,589.017151 207.073532,589.337585 
	C208.075012,590.157654 208.979523,590.657227 209.884033,591.156860 
	C209.884033,591.156860 210.007812,591.057129 210.100189,591.390137 
	C214.771606,594.178711 219.350662,596.634277 223.929703,599.089783 
	C223.929703,599.089783 223.954132,599.066895 224.119232,599.362793 
	C230.207962,602.784668 236.131607,605.910706 242.055237,609.036743 
z"/>
<path fill="#3BB4CD" opacity="1.000000" stroke="none" 
	d="
M187.305344,628.288940 
	C188.958145,627.713318 190.900665,627.200806 192.844467,627.195984 
	C214.235001,627.142639 235.625763,627.176025 257.016449,627.156738 
	C258.582184,627.155334 260.147705,626.928345 262.885468,626.714722 
	C260.495575,624.122681 258.876556,622.366760 257.132935,620.293823 
	C258.097198,620.272156 259.567780,620.225098 260.199951,620.929993 
	C261.790588,622.703491 263.002747,624.816528 264.366669,626.793396 
	C262.157776,627.536316 259.953094,628.909607 257.739319,628.924438 
	C235.996857,629.070312 214.252899,628.998352 192.509415,628.957642 
	C190.871277,628.954590 189.233566,628.716675 187.305344,628.288940 
z"/>
<path fill="#3BB4CD" opacity="1.000000" stroke="none" 
	d="
M198.584320,583.062683 
	C194.835922,581.307922 191.131561,579.191650 187.377319,577.046875 
	C186.891006,577.645203 186.338196,578.008240 186.339584,578.369202 
	C186.401825,594.659363 186.512711,610.949463 186.807861,627.613647 
	C186.009186,626.759949 184.176880,625.543396 184.160400,624.302734 
	C183.964050,609.508057 184.048615,594.709839 184.033386,579.912537 
	C184.029358,575.990479 186.567703,575.127258 189.323486,576.441101 
	C192.661255,578.032471 195.546997,580.571899 198.584320,583.062683 
z"/>
<path fill="#22A3BD" opacity="1.000000" stroke="none" 
	d="
M267.215576,536.590820 
	C266.860687,507.172455 266.856689,477.542450 266.955902,447.451141 
	C267.375275,448.047852 267.965027,449.105225 267.967529,450.163940 
	C268.034088,478.102478 268.044037,506.041199 268.035583,533.979858 
	C268.035339,534.779663 267.729767,535.579407 267.215576,536.590820 
z"/>
<path fill="#3BB4CD" opacity="1.000000" stroke="none" 
	d="
M241.897186,608.729980 
	C236.131607,605.910706 230.207962,602.784668 224.112701,599.366455 
	C229.873764,602.190674 235.806442,605.307007 241.897186,608.729980 
z"/>
<path fill="#3BB4CD" opacity="1.000000" stroke="none" 
	d="
M223.917358,598.735596 
	C219.350662,596.634277 214.771606,594.178711 210.029053,591.425537 
	C214.545349,593.545654 219.225174,595.963562 223.917358,598.735596 
z"/>
<path fill="#3BB4CD" opacity="1.000000" stroke="none" 
	d="
M257.004944,619.640015 
	C253.742172,617.565674 250.461761,615.142151 247.029236,612.419067 
	C252.007370,612.028381 254.511429,615.639771 257.004944,619.640015 
z"/>
<path fill="#3BB4CD" opacity="1.000000" stroke="none" 
	d="
M246.895844,611.756592 
	C245.566055,611.352417 244.241608,610.557678 242.719635,609.481995 
	C243.981796,609.922729 245.441498,610.644348 246.895844,611.756592 
z"/>
<path fill="#3BB4CD" opacity="1.000000" stroke="none" 
	d="
M209.878036,590.791077 
	C208.979523,590.657227 208.075012,590.157654 207.036896,589.372864 
	C207.892868,589.533569 208.882446,589.979431 209.878036,590.791077 
z"/>
<path fill="#3BB4CD" opacity="1.000000" stroke="none" 
	d="
M203.937424,586.698853 
	C203.020523,586.596741 202.077164,586.136169 201.030151,585.371338 
	C201.921310,585.491516 202.916122,585.915955 203.937424,586.698853 
z"/>
<path fill="#3BB4CD" opacity="1.000000" stroke="none" 
	d="
M206.843567,588.795349 
	C206.037582,588.615417 205.128433,588.116394 204.084396,587.329712 
	C204.879807,587.520142 205.810104,587.998230 206.843567,588.795349 
z"/>
<path fill="#3BB4CD" opacity="1.000000" stroke="none" 
	d="
M200.921036,584.727417 
	C200.261154,584.742676 199.582596,584.401672 198.785080,583.803711 
	C199.411530,583.821533 200.156937,584.096375 200.921036,584.727417 
z"/>
<path fill="#F0FDFD" opacity="1.000000" stroke="none" 
	d="
M656.252686,458.144775 
	C656.508301,457.692352 656.763855,457.239929 657.343933,456.368835 
	C659.162231,454.345184 660.656128,452.740265 662.149963,451.135315 
	C662.149963,451.135315 662.011108,451.091736 662.393188,451.079346 
	C663.884338,450.404480 664.993408,449.742035 666.102539,449.079590 
	C666.102539,449.079590 666.035034,449.037964 666.447510,449.100220 
	C670.902649,449.139587 674.945312,449.116730 678.987976,449.093842 
	C678.987976,449.093842 678.979675,449.018921 679.151978,449.309204 
	C682.090088,451.825043 684.855774,454.050568 687.621521,456.276123 
	C687.621521,456.276123 688.003479,456.021179 687.842896,456.440247 
	C688.029846,457.309326 688.377441,457.759369 688.724976,458.209381 
	C688.724976,458.209381 688.896362,458.073059 688.798340,458.510620 
	C689.115234,461.246002 689.530212,463.543854 689.945129,465.841705 
	C689.872070,465.996857 689.798950,466.152008 689.268921,466.592041 
	C677.354004,466.876923 665.895935,466.876923 653.855225,466.876923 
	C654.796082,463.450012 655.524353,460.797363 656.252686,458.144775 
z"/>
<path fill="#2CAAC2" opacity="1.000000" stroke="none" 
	d="
M655.876038,458.143494 
	C655.524353,460.797363 654.796082,463.450012 653.855225,466.876923 
	C665.895935,466.876923 677.354004,466.876923 689.248413,466.848511 
	C688.344116,467.533295 687.015442,468.836945 685.660889,468.864380 
	C676.518188,469.049408 667.369995,468.965485 658.223572,468.965973 
	C652.226074,468.966278 651.501282,468.085876 653.178101,462.218292 
	C653.595520,460.757782 654.706970,459.495605 655.876038,458.143494 
z"/>
<path fill="#2CAAC2" opacity="1.000000" stroke="none" 
	d="
M687.743896,455.898071 
	C684.855774,454.050568 682.090088,451.825043 679.120605,449.330017 
	C683.857971,448.501007 686.859070,450.629242 687.743896,455.898071 
z"/>
<path fill="#2CAAC2" opacity="1.000000" stroke="none" 
	d="
M678.765625,448.793518 
	C674.945312,449.116730 670.902649,449.139587 666.436890,449.138367 
	C670.102600,447.139221 674.273743,446.824738 678.765625,448.793518 
z"/>
<path fill="#2CAAC2" opacity="1.000000" stroke="none" 
	d="
M690.295898,465.838745 
	C689.530212,463.543854 689.115234,461.246002 688.697693,458.553802 
	C690.766968,460.356903 692.995972,462.514404 690.295898,465.838745 
z"/>
<path fill="#2CAAC2" opacity="1.000000" stroke="none" 
	d="
M661.762756,451.083313 
	C660.656128,452.740265 659.162231,454.345184 657.368896,456.102844 
	C656.779175,453.091797 658.173889,451.316833 661.762756,451.083313 
z"/>
<path fill="#2CAAC2" opacity="1.000000" stroke="none" 
	d="
M665.709534,449.033630 
	C664.993408,449.742035 663.884338,450.404480 662.450562,451.124023 
	C663.189453,450.449982 664.252991,449.718842 665.709534,449.033630 
z"/>
<path fill="#2CAAC2" opacity="1.000000" stroke="none" 
	d="
M688.799561,457.873962 
	C688.377441,457.759369 688.029846,457.309326 687.649597,456.563293 
	C688.036011,456.691040 688.455078,457.114777 688.799561,457.873962 
z"/>
<path fill="#F0FDFD" opacity="1.000000" stroke="none" 
	d="
M692.815674,579.919678 
	C698.598511,572.515564 705.791016,570.337952 714.287842,573.060364 
	C723.519775,576.018311 726.816040,583.816040 727.627197,592.293274 
	C728.178528,598.054810 727.408142,604.316284 725.630493,609.839783 
	C722.969971,618.107117 715.420776,622.902405 707.897888,622.780029 
	C699.718750,622.647095 691.595398,617.002319 689.423950,608.496094 
	C686.968384,598.877075 686.454834,589.062622 692.815674,579.919678 
z"/>
<path fill="#08BDE4" opacity="1.000000" stroke="none" 
	d="
M592.960205,625.080200 
	C592.184204,623.000061 591.779602,620.665771 590.629395,618.788269 
	C584.135742,608.188843 583.648499,597.138611 586.689087,585.292725 
	C588.628357,577.737610 592.087036,571.535095 598.088928,566.790649 
	C608.574402,558.502075 619.933777,556.169556 633.147644,560.129578 
	C641.133362,562.522827 646.985046,566.875916 651.177795,573.403381 
	C654.052856,577.879456 656.527039,583.103516 657.391052,588.291260 
	C660.261658,605.526489 656.151794,621.865112 640.362000,630.975525 
	C628.835388,637.626160 616.530823,638.372192 604.416382,631.890503 
	C600.691772,629.897705 597.191040,627.486572 593.237183,625.159851 
	C592.886536,625.052673 592.987427,625.036987 592.960205,625.080200 
M604.456970,581.280212 
	C604.250916,581.803833 604.044922,582.327393 603.110413,583.039185 
	C602.461426,583.736755 601.291870,584.400879 601.244629,585.137024 
	C600.813782,591.861084 599.580872,598.737488 600.500977,605.300354 
	C602.216675,617.536743 611.229248,624.694824 622.154541,623.989014 
	C630.833191,623.428345 636.571594,619.873230 638.521179,613.844116 
	C638.774048,613.634277 638.954346,613.374146 639.783875,612.870422 
	C644.761536,602.833252 643.375977,592.617737 640.503845,582.410339 
	C640.312195,581.729126 638.958740,581.374878 638.063538,580.175598 
	C637.099609,579.057312 636.135681,577.939026 635.059326,576.104126 
	C630.809509,569.849854 620.025391,568.212097 613.122131,572.942566 
	C611.691467,573.911072 610.260742,574.879578 608.449158,576.115723 
	C608.208008,576.315979 608.001831,576.547424 607.098450,576.916870 
	C606.368713,578.255432 605.638916,579.593933 604.456970,581.280212 
z"/>
<path fill="#09BCE2" opacity="1.000000" stroke="none" 
	d="
M608.523376,437.071167 
	C612.352295,441.052948 615.771545,445.006531 619.510498,449.057617 
	C623.607300,467.902557 621.449036,486.879272 622.008545,505.750854 
	C622.065613,507.674652 622.016174,509.601593 622.016174,511.477020 
	C618.166382,511.685455 615.067993,511.708344 612.005920,512.053101 
	C607.480652,512.562683 605.826050,510.874115 605.911743,506.188232 
	C606.167236,492.225250 606.103760,478.253876 605.969482,464.287659 
	C605.918457,458.985168 604.268555,454.304840 598.503662,451.886597 
	C594.466309,446.496368 589.039917,449.386810 584.429810,449.266113 
	C582.080933,449.204620 579.676941,451.245819 577.134949,452.655151 
	C571.259216,457.159454 571.355713,463.666016 571.128113,469.562622 
	C570.652832,481.876984 570.823059,494.225677 571.068420,506.553497 
	C571.159790,511.145630 569.273438,512.501953 565.107971,512.033997 
	C562.384094,511.727905 559.637939,511.620148 556.165649,511.370636 
	C555.836548,509.396790 555.100647,507.018555 555.094727,504.638489 
	C555.021667,475.473511 555.051086,446.308289 555.068420,417.143127 
	C555.070251,414.039276 554.830811,410.874603 555.382996,407.862762 
	C555.592773,406.718414 557.648071,405.246460 558.987976,405.103668 
	C562.588989,404.719879 566.257812,404.972595 570.598206,404.972595 
	C570.717285,406.493774 570.963928,408.219391 570.969055,409.945770 
	C570.997681,419.611481 570.884521,429.278748 571.041565,438.941895 
	C571.067383,440.531830 572.192627,442.103851 572.809814,443.684143 
	C574.196960,442.970398 575.666016,442.380035 576.957825,441.522614 
	C584.369141,436.603088 592.184448,433.492065 601.301758,435.644287 
	C603.556824,436.176697 605.842224,436.580200 608.523376,437.071167 
z"/>
<path fill="#07BEE6" opacity="1.000000" stroke="none" 
	d="
M768.557373,560.048706 
	C770.861206,560.531433 772.729675,561.009277 774.793884,562.136475 
	C775.010742,563.845520 775.031921,564.905334 775.053040,565.965088 
	C778.176331,568.626038 779.993652,567.896484 783.035522,562.420898 
	C788.035950,561.032288 792.959900,559.614380 797.979187,559.059875 
	C804.123474,558.381104 809.687256,560.053955 813.815918,565.145569 
	C814.405640,565.872864 815.457703,566.225220 816.580750,566.927490 
	C818.707214,572.134094 821.764038,569.721436 823.614807,567.641907 
	C827.686096,563.067627 832.696472,560.660828 838.466003,559.260315 
	C852.201538,555.926086 865.849121,563.065125 867.903137,577.547974 
	C870.350220,594.802307 870.992920,612.180542 869.123596,629.594299 
	C868.837585,632.258606 868.117676,633.658569 865.321228,633.531006 
	C864.841553,633.509033 864.355957,633.769836 863.864563,633.827332 
	C854.386780,634.935425 854.016113,634.617981 854.006531,625.031799 
	C853.993835,612.387939 853.998413,599.744141 854.021606,587.100281 
	C854.032776,581.026611 852.125244,575.656067 846.574280,572.857971 
	C839.685181,569.385315 832.770325,570.438660 827.408325,576.037720 
	C825.174683,578.370117 824.409790,582.109070 822.970764,585.592285 
	C822.955872,600.116821 822.817566,614.259338 823.018188,628.397034 
	C823.078003,632.608276 821.435730,634.200195 817.480042,633.960938 
	C817.148621,633.940918 816.814758,633.958923 816.482056,633.962585 
	C807.080933,634.066772 807.072388,634.066895 807.063538,624.860596 
	C807.051331,612.217163 807.053650,599.573730 807.038208,586.460815 
	C805.802002,582.618103 805.221191,578.789307 803.222107,575.963928 
	C798.668945,569.528809 791.692749,571.217224 785.538940,572.505188 
	C780.742065,573.509216 775.994324,579.574585 775.971069,586.151245 
	C775.924072,599.465149 775.977478,612.779358 775.967590,626.093445 
	C775.962646,632.746826 775.628296,633.109375 769.234497,633.907349 
	C760.858826,634.952698 760.043091,634.264954 760.034363,625.888611 
	C760.014282,606.583130 760.021301,587.277649 760.019226,567.972168 
	C760.018372,560.065063 760.020630,560.065063 768.557373,560.048706 
z"/>
<path fill="#05BEE6" opacity="1.000000" stroke="none" 
	d="
M459.253174,422.959290 
	C458.455048,422.799255 457.898590,422.633209 457.152832,422.239349 
	C456.655334,418.952789 456.347076,415.894043 456.020844,412.425659 
	C456.002838,412.016052 456.003754,412.001434 456.288391,411.855774 
	C457.102783,410.844757 457.632538,409.979370 458.162262,409.113983 
	C459.155457,409.112000 460.148682,409.109985 461.733978,409.325836 
	C463.242523,409.384888 464.158966,409.226044 465.075409,409.067200 
	C486.044281,409.069244 507.013184,409.071320 528.564941,409.232483 
	C529.470276,409.293488 529.792664,409.195435 530.115051,409.097382 
	C533.066223,409.100800 536.017395,409.104248 539.401794,409.123596 
	C539.709839,413.552582 539.584656,417.965607 539.205566,422.672485 
	C530.629578,422.959900 522.307556,422.953491 513.523193,422.948608 
	C509.435516,421.083374 508.177795,423.024231 508.037872,426.256134 
	C507.886963,429.741943 507.997681,433.239197 507.998352,436.731445 
	C508.002808,460.179932 507.917877,483.629120 508.101074,507.076233 
	C508.132233,511.062866 506.942200,512.400391 503.016449,512.112976 
	C498.955933,511.815613 494.856689,512.046814 490.023651,512.046814 
	C490.023651,509.808289 490.023621,508.044281 490.023651,506.280243 
	C490.024078,483.663239 489.983215,461.046112 490.067047,438.429413 
	C490.080444,434.807739 490.896606,431.184753 490.847107,427.569153 
	C490.826630,426.072357 489.504547,424.593414 488.013672,423.034515 
	C486.505371,422.954224 485.757751,422.945770 485.010162,422.937256 
	C484.440063,422.791840 483.869965,422.646423 482.676819,422.715210 
	C474.695129,422.944550 467.336487,422.959656 459.977814,422.974762 
	C459.977814,422.974762 459.494812,422.953308 459.253174,422.959290 
z"/>
<path fill="#30A1B6" opacity="1.000000" stroke="none" 
	d="
M460.276459,423.270203 
	C467.336487,422.959656 474.695129,422.944550 482.521606,422.924011 
	C475.518005,423.134247 468.046539,423.349945 460.276459,423.270203 
z"/>
<path fill="#30A1B6" opacity="1.000000" stroke="none" 
	d="
M485.182343,423.196533 
	C485.757751,422.945770 486.505371,422.954224 487.626404,422.980713 
	C487.118103,423.151123 486.236298,423.303436 485.182343,423.196533 
z"/>
<path fill="#3BB4CD" opacity="1.000000" stroke="none" 
	d="
M570.820679,628.604675 
	C570.581909,627.821899 570.444763,626.647888 570.519043,625.240112 
	C570.794373,626.075378 570.858337,627.144409 570.820679,628.604675 
z"/>
<path fill="#06BFE5" opacity="1.000000" stroke="none" 
	d="
M528.971619,575.576782 
	C528.966492,575.943481 528.896240,576.376831 528.851807,576.591675 
	C526.979004,577.797668 525.150757,578.788818 523.145203,579.876038 
	C544.057068,591.507080 546.643066,614.227600 528.638916,628.026123 
	C524.294617,629.380981 520.348450,631.218262 516.219971,631.835510 
	C508.877716,632.933289 501.436646,633.597351 494.015442,633.880981 
	C485.203369,634.217834 476.368134,633.906311 467.543976,633.988342 
	C463.823639,634.022888 462.013336,632.503235 462.017090,628.664307 
	C462.046875,598.193604 462.055054,567.722717 461.967194,537.252258 
	C461.957062,533.742798 463.899445,532.089355 466.775940,532.183167 
	C483.178162,532.718018 499.735382,530.013855 515.954651,534.085938 
	C520.220276,535.156799 524.208069,537.334534 528.703369,538.980225 
	C529.083374,538.956421 529.032166,538.987366 529.102356,539.212891 
	C529.462158,539.622803 529.751770,539.807068 530.041382,539.991394 
	C530.041382,539.991394 529.996704,539.999756 529.978943,540.335449 
	C531.003662,541.771851 532.046143,542.872620 533.088562,543.973450 
	C533.088562,543.973450 533.039490,543.921448 533.061462,543.892883 
	C535.784058,552.243225 537.234375,560.597534 532.586243,568.829834 
	C531.384888,570.957581 530.179993,573.083374 528.971619,575.576782 
M517.724487,615.994385 
	C518.189941,615.368286 518.655396,614.742188 519.817932,613.929993 
	C524.499756,609.022400 523.772644,603.309082 521.731628,597.742920 
	C521.018982,595.799377 518.740479,594.429993 516.780823,592.229248 
	C514.444885,590.833191 512.165344,588.357422 509.763092,588.232056 
	C500.471252,587.747070 491.139526,587.942688 481.824432,588.044739 
	C479.478912,588.070374 477.483521,588.935486 478.943420,592.944031 
	C478.949829,600.972473 478.956238,609.000854 478.963715,617.851379 
	C478.828918,620.737488 480.125397,622.043457 483.090759,621.999939 
	C489.512970,621.905884 496.023743,622.614868 502.332825,621.765869 
	C507.032532,621.133423 512.694336,622.019836 516.525513,616.869507 
	C516.785339,616.672974 516.980103,616.425232 517.724487,615.994385 
M507.489990,573.922424 
	C507.967255,573.550293 508.444519,573.178101 509.369995,572.309082 
	C514.881714,569.951721 517.439453,565.405212 517.574646,559.778625 
	C517.719971,553.733093 514.319824,549.631714 508.620056,546.486816 
	C508.120026,546.078369 507.622742,545.317749 507.119568,545.313843 
	C497.920288,545.242310 488.720337,545.261536 478.719543,545.261536 
	C478.719543,550.896057 478.679382,556.102173 478.732788,561.307251 
	C478.772766,565.205078 478.933258,569.101624 479.041351,573.831665 
	C479.287292,574.409668 479.540527,575.495605 479.778137,575.492188 
	C488.535950,575.366211 497.292603,575.150513 506.047363,574.878601 
	C506.345581,574.869324 506.622009,574.157227 506.923157,573.872498 
	C506.923157,573.872498 506.831940,573.829468 507.489990,573.922424 
z"/>
<path fill="#04C0E9" opacity="1.000000" stroke="none" 
	d="
M568.509949,530.031616 
	C568.982788,563.744019 568.992126,597.420776 569.008972,631.570923 
	C564.799988,632.336487 560.562744,632.945068 556.383545,632.670166 
	C555.482361,632.610840 554.124817,629.374023 554.105896,627.589050 
	C553.924927,610.469971 553.982422,593.348267 553.979431,576.227356 
	C553.977051,562.597107 554.180847,548.962463 553.880066,535.338989 
	C553.779297,530.776306 555.299988,529.434387 559.575867,529.914124 
	C562.367310,530.227356 565.220703,529.987793 568.509949,530.031616 
z"/>
<path fill="#22A3BD" opacity="1.000000" stroke="none" 
	d="
M533.091980,543.634949 
	C532.046143,542.872620 531.003662,541.771851 529.990479,540.315857 
	C531.045044,541.072571 532.070190,542.184509 533.091980,543.634949 
z"/>
<path fill="#22A3BD" opacity="1.000000" stroke="none" 
	d="
M529.960815,539.739014 
	C529.751770,539.807068 529.462158,539.622803 529.094360,539.184204 
	C529.304260,539.115540 529.592224,539.301086 529.960815,539.739014 
z"/>
<path fill="#2CAAC2" opacity="1.000000" stroke="none" 
	d="
M457.800903,409.121063 
	C457.632538,409.979370 457.102783,410.844757 456.293518,411.853607 
	C456.489166,411.040771 456.964325,410.084473 457.800903,409.121063 
z"/>
<path fill="#2CAAC2" opacity="1.000000" stroke="none" 
	d="
M464.677368,409.043701 
	C464.158966,409.226044 463.242523,409.384888 462.106445,409.320984 
	C462.684326,409.072205 463.481812,409.046173 464.677368,409.043701 
z"/>
<path fill="#2CAAC2" opacity="1.000000" stroke="none" 
	d="
M529.813599,409.073059 
	C529.792664,409.195435 529.470276,409.293488 529.027832,409.232788 
	C529.109192,409.065613 529.310608,409.057190 529.813599,409.073059 
z"/>
<path fill="#22A3BD" opacity="1.000000" stroke="none" 
	d="
M775.298584,565.750244 
	C775.031921,564.905334 775.010742,563.845520 774.995605,562.386780 
	C775.182556,563.170288 775.363403,564.352844 775.298584,565.750244 
z"/>
<path fill="#30A1B6" opacity="1.000000" stroke="none" 
	d="
M541.815857,423.918945 
	C541.664001,423.808197 541.576416,423.742493 541.488831,423.676788 
	C541.601624,423.643250 541.714355,423.609741 541.882568,423.697205 
	C541.938049,423.818146 541.880127,423.963959 541.815857,423.918945 
z"/>
<path fill="#2CAAC2" opacity="1.000000" stroke="none" 
	d="
M638.117004,614.099731 
	C636.571594,619.873230 630.833191,623.428345 622.154541,623.989014 
	C611.229248,624.694824 602.216675,617.536743 600.500977,605.300354 
	C599.580872,598.737488 600.813782,591.861084 601.244629,585.137024 
	C601.291870,584.400879 602.461426,583.736755 603.549438,583.010254 
	C603.988525,582.981384 604.139526,583.110046 604.096130,583.489258 
	C603.098816,588.874268 601.288269,593.891907 601.358154,598.883362 
	C601.538696,611.782410 608.073181,620.135498 618.820984,622.272400 
	C627.053589,623.909241 632.732483,619.476562 637.853882,613.862671 
	C637.940918,613.942444 638.117004,614.099731 638.117004,614.099731 
z"/>
<path fill="#2CAAC2" opacity="1.000000" stroke="none" 
	d="
M638.145691,580.868530 
	C638.958740,581.374878 640.312195,581.729126 640.503845,582.410339 
	C643.375977,592.617737 644.761536,602.833252 639.259277,612.826294 
	C638.734619,612.782227 638.404480,612.503784 638.549133,612.158691 
	C642.904419,601.466675 642.744080,591.248230 637.881714,581.095215 
	C637.969971,581.019958 638.145691,580.868530 638.145691,580.868530 
z"/>
<path fill="#2CAAC2" opacity="1.000000" stroke="none" 
	d="
M613.899109,572.890564 
	C620.025391,568.212097 630.809509,569.849854 635.028503,576.547729 
	C634.997681,576.991272 634.818604,577.156555 634.507935,577.009766 
	C628.224915,571.811218 621.484558,571.010071 614.121582,573.158813 
	C614.048218,573.068726 613.899109,572.890564 613.899109,572.890564 
z"/>
<path fill="#2CAAC2" opacity="1.000000" stroke="none" 
	d="
M608.830017,575.848083 
	C610.260742,574.879578 611.691467,573.911072 613.510620,572.916565 
	C613.899109,572.890564 614.048218,573.068726 613.914246,573.409180 
	C612.235596,574.553894 610.690979,575.358154 609.068359,576.082764 
	C608.990356,576.003052 608.830017,575.848083 608.830017,575.848083 
z"/>
<path fill="#2CAAC2" opacity="1.000000" stroke="none" 
	d="
M604.909180,580.932495 
	C605.638916,579.593933 606.368713,578.255432 607.541870,576.947876 
	C607.985352,576.978882 608.142578,577.145569 608.022095,577.437439 
	C607.007202,578.878967 606.112854,580.028625 605.141602,581.116333 
	C605.064697,581.054321 604.909180,580.932495 604.909180,580.932495 
z"/>
<path fill="#2CAAC2" opacity="1.000000" stroke="none" 
	d="
M635.084717,576.906006 
	C636.135681,577.939026 637.099609,579.057312 638.104614,580.522095 
	C638.145691,580.868530 637.969971,581.019958 637.614014,580.925293 
	C636.444885,579.605957 635.631775,578.381226 634.818604,577.156555 
	C634.818604,577.156555 634.997681,576.991272 635.084717,576.906006 
z"/>
<path fill="#2CAAC2" opacity="1.000000" stroke="none" 
	d="
M603.913696,582.916199 
	C604.044922,582.327393 604.250916,581.803833 604.683105,581.106323 
	C604.909180,580.932495 605.064697,581.054321 605.101624,581.402344 
	C604.805542,582.203613 604.472534,582.656799 604.139526,583.110046 
	C604.139526,583.110046 603.988525,582.981384 603.913696,582.916199 
z"/>
<path fill="#2CAAC2" opacity="1.000000" stroke="none" 
	d="
M638.898376,612.922974 
	C638.954346,613.374146 638.774048,613.634277 638.319092,613.971924 
	C638.117004,614.099731 637.940918,613.942444 637.900818,613.622681 
	C637.956177,612.978210 638.137390,612.711853 638.404480,612.503784 
	C638.404480,612.503784 638.734619,612.782227 638.898376,612.922974 
z"/>
<path fill="#2CAAC2" opacity="1.000000" stroke="none" 
	d="
M607.907959,576.894470 
	C608.001831,576.547424 608.208008,576.315979 608.639587,575.981934 
	C608.830017,575.848083 608.990356,576.003052 608.974243,576.311279 
	C608.754211,576.900146 608.482361,577.075439 608.142578,577.145569 
	C608.142578,577.145569 607.985352,576.978882 607.907959,576.894470 
z"/>
<path fill="#F0FDFD" opacity="1.000000" stroke="none" 
	d="
M508.815063,547.266785 
	C514.319824,549.631714 517.719971,553.733093 517.574646,559.778625 
	C517.439453,565.405212 514.881714,569.951721 508.840088,572.581177 
	C507.817444,573.178589 507.324677,573.504028 506.831909,573.829468 
	C506.831940,573.829468 506.923157,573.872498 506.492462,573.829224 
	C498.336456,574.161987 490.613068,574.609863 482.883270,574.821777 
	C481.937988,574.847656 480.958008,573.608276 480.061249,572.493347 
	C480.128387,563.467224 480.128387,554.902954 480.128387,545.592712 
	C490.304901,546.186584 499.559998,546.726685 508.815063,547.266785 
z"/>
<path fill="#2CAAC2" opacity="1.000000" stroke="none" 
	d="
M516.112244,617.105286 
	C512.694336,622.019836 507.032532,621.133423 502.332825,621.765869 
	C496.023743,622.614868 489.512970,621.905884 483.090759,621.999939 
	C480.125397,622.043457 478.828918,620.737488 479.221130,617.425293 
	C479.650269,616.989258 479.821960,616.979309 480.091675,617.362671 
	C480.786011,618.433960 481.399536,619.717163 481.976135,619.700806 
	C493.284668,619.379517 504.858765,621.847290 515.825195,616.796265 
	C515.919312,616.900757 516.112244,617.105286 516.112244,617.105286 
z"/>
<path fill="#30A1B6" opacity="1.000000" stroke="none" 
	d="
M508.717560,546.876831 
	C499.559998,546.726685 490.304901,546.186584 480.128387,545.592712 
	C480.128387,554.902954 480.128387,563.467224 479.822937,572.509277 
	C479.517517,572.987122 479.040070,572.998779 479.040100,572.998779 
	C478.933258,569.101624 478.772766,565.205078 478.732788,561.307251 
	C478.679382,556.102173 478.719543,550.896057 478.719543,545.261536 
	C488.720337,545.261536 497.920288,545.242310 507.119568,545.313843 
	C507.622742,545.317749 508.120026,546.078369 508.717560,546.876831 
z"/>
<path fill="#2CAAC2" opacity="1.000000" stroke="none" 
	d="
M478.958099,592.008484 
	C477.483521,588.935486 479.478912,588.070374 481.824432,588.044739 
	C491.139526,587.942688 500.471252,587.747070 509.763092,588.232056 
	C512.165344,588.357422 514.444885,590.833191 516.901672,592.602783 
	C517.022522,592.976379 516.866028,593.152466 516.512207,593.062256 
	C513.219421,591.990417 510.320618,590.335510 507.333618,590.157043 
	C499.294617,589.677002 491.216980,589.740234 483.157440,589.831360 
	C482.083954,589.843506 481.026459,591.266174 479.710785,592.026062 
	C479.292694,592.013794 479.125397,592.011108 478.958099,592.008484 
z"/>
<path fill="#2CAAC2" opacity="1.000000" stroke="none" 
	d="
M517.099731,592.887390 
	C518.740479,594.429993 521.018982,595.799377 521.731628,597.742920 
	C523.772644,603.309082 524.499756,609.022400 519.376343,613.939148 
	C518.934692,613.948303 518.746765,613.782471 518.833008,613.411804 
	C522.646423,605.956177 521.891724,599.333862 516.866028,593.152466 
	C516.866028,593.152466 517.022522,592.976379 517.099731,592.887390 
z"/>
<path fill="#2CAAC2" opacity="1.000000" stroke="none" 
	d="
M479.040710,573.415222 
	C479.040070,572.998779 479.517517,572.987122 479.755798,572.971191 
	C480.958008,573.608276 481.937988,574.847656 482.883270,574.821777 
	C490.613068,574.609863 498.336456,574.161987 506.485168,573.779297 
	C506.622009,574.157227 506.345581,574.869324 506.047363,574.878601 
	C497.292603,575.150513 488.535950,575.366211 479.778137,575.492188 
	C479.540527,575.495605 479.287292,574.409668 479.040710,573.415222 
z"/>
<path fill="#30A1B6" opacity="1.000000" stroke="none" 
	d="
M478.950745,592.476257 
	C479.125397,592.011108 479.292694,592.013794 479.781372,592.486206 
	C480.066406,600.960449 480.030029,608.964966 479.993652,616.969421 
	C479.821960,616.979309 479.650269,616.989258 479.220612,617.014282 
	C478.956238,609.000854 478.949829,600.972473 478.950745,592.476257 
z"/>
<path fill="#2CAAC2" opacity="1.000000" stroke="none" 
	d="
M519.027771,614.032166 
	C518.655396,614.742188 518.189941,615.368286 517.348755,615.984680 
	C516.972961,615.974976 516.833679,615.825806 516.953735,615.565491 
	C517.631470,614.797607 518.189087,614.290039 518.746765,613.782471 
	C518.746765,613.782471 518.934692,613.948303 519.027771,614.032166 
z"/>
<path fill="#2CAAC2" opacity="1.000000" stroke="none" 
	d="
M507.160950,573.875977 
	C507.324677,573.504028 507.817444,573.178589 508.615967,572.829590 
	C508.444519,573.178101 507.967255,573.550293 507.160950,573.875977 
z"/>
<path fill="#2CAAC2" opacity="1.000000" stroke="none" 
	d="
M517.041382,616.050659 
	C516.980103,616.425232 516.785339,616.672974 516.318848,616.987427 
	C516.112244,617.105286 515.919312,616.900757 515.942261,616.579102 
	C516.200684,616.005005 516.490173,615.861145 516.833679,615.825806 
	C516.833679,615.825806 516.972961,615.974976 517.041382,616.050659 
z"/>
<path fill="#F0FDFD" opacity="1.000000" stroke="none" 
	d="
M608.022095,577.437439 
	C608.482361,577.075439 608.754211,576.900146 609.052246,576.390991 
	C610.690979,575.358154 612.235596,574.553894 613.987610,573.499268 
	C621.484558,571.010071 628.224915,571.811218 634.507996,577.009766 
	C635.631775,578.381226 636.444885,579.605957 637.525757,581.000610 
	C642.744080,591.248230 642.904419,601.466675 638.549133,612.158691 
	C638.137390,612.711853 637.956177,612.978210 637.813782,613.542969 
	C632.732483,619.476562 627.053589,623.909241 618.820984,622.272400 
	C608.073181,620.135498 601.538696,611.782410 601.358154,598.883362 
	C601.288269,593.891907 603.098816,588.874268 604.096130,583.489258 
	C604.472534,582.656799 604.805542,582.203613 605.178528,581.464355 
	C606.112854,580.028625 607.007202,578.878967 608.022095,577.437439 
z"/>
<path fill="#F0FDFD" opacity="1.000000" stroke="none" 
	d="
M516.953735,615.565491 
	C516.490173,615.861145 516.200684,616.005005 515.848145,616.474609 
	C504.858765,621.847290 493.284668,619.379517 481.976135,619.700806 
	C481.399536,619.717163 480.786011,618.433960 480.091675,617.362671 
	C480.030029,608.964966 480.066406,600.960449 480.032166,592.495850 
	C481.026459,591.266174 482.083954,589.843506 483.157440,589.831360 
	C491.216980,589.740234 499.294617,589.677002 507.333618,590.157043 
	C510.320618,590.335510 513.219421,591.990417 516.512207,593.062256 
	C521.891724,599.333862 522.646423,605.956177 518.833008,613.411804 
	C518.189087,614.290039 517.631470,614.797607 516.953735,615.565491 
z"/>
</svg>